<?xml version="1.0" encoding="utf-8" standalone="no"?>
<!DOCTYPE svg PUBLIC "-//W3C//DTD SVG 1.1//EN"
  "http://www.w3.org/Graphics/SVG/1.1/DTD/svg11.dtd">
<svg xmlns:xlink="http://www.w3.org/1999/xlink" width="741.685937pt" height="381.195469pt" viewBox="0 0 741.685937 381.195469" xmlns="http://www.w3.org/2000/svg" version="1.1">
 <metadata>
  <rdf:RDF xmlns:dc="http://purl.org/dc/elements/1.1/" xmlns:cc="http://creativecommons.org/ns#" xmlns:rdf="http://www.w3.org/1999/02/22-rdf-syntax-ns#">
   <cc:Work>
    <dc:type rdf:resource="http://purl.org/dc/dcmitype/StillImage"/>
    <dc:date>2023-01-26T01:14:34.810031</dc:date>
    <dc:format>image/svg+xml</dc:format>
    <dc:creator>
     <cc:Agent>
      <dc:title>Matplotlib v3.5.2, https://matplotlib.org/</dc:title>
     </cc:Agent>
    </dc:creator>
   </cc:Work>
  </rdf:RDF>
 </metadata>
 <defs>
  <style type="text/css">*{stroke-linejoin: round; stroke-linecap: butt}</style>
 </defs>
 <g id="figure_1">
  <g id="patch_1">
   <path d="M 0 381.195469 
L 741.685937 381.195469 
L 741.685937 0 
L 0 0 
z
" style="fill: #ffffff"/>
  </g>
  <g id="axes_1">
   <g id="patch_2">
    <path d="M 58.523438 343.639219 
L 728.123438 343.639219 
L 728.123438 10.999219 
L 58.523438 10.999219 
z
" style="fill: #ffffff"/>
   </g>
   <g id="line2d_1">
    <path d="M 58.523438 77.527219 
L 59.136475 76.544941 
L 62.528613 70.874213 
L 65.634668 65.232168 
L 69.598975 57.530266 
L 76.342383 44.39896 
L 79.244092 39.278283 
L 81.69624 35.391943 
L 83.862305 32.360008 
L 85.864893 29.924345 
L 87.744873 27.974606 
L 89.543115 26.420032 
L 91.300488 25.19232 
L 93.016992 24.264641 
L 94.692627 23.607436 
L 96.409131 23.174496 
L 98.166504 22.965054 
L 100.005615 22.976002 
L 101.844727 23.195695 
L 103.969922 23.671907 
L 106.42207 24.460334 
L 109.364648 25.649366 
L 114.105469 27.8429 
L 119.663672 30.353452 
L 123.09668 31.654878 
L 126.039258 32.542767 
L 128.818359 33.16161 
L 131.597461 33.558882 
L 134.376563 33.740366 
L 137.319141 33.717349 
L 140.588672 33.473078 
L 144.675586 32.93585 
L 156.445898 31.241833 
L 159.71543 31.082241 
L 162.658008 31.163201 
L 165.437109 31.471712 
L 168.052734 31.991566 
L 170.668359 32.749549 
L 173.283984 33.75458 
L 175.899609 35.009217 
L 178.515234 36.509709 
L 181.294336 38.362257 
L 184.236914 40.593 
L 187.506445 43.359495 
L 191.266406 46.84894 
L 196.007227 51.576243 
L 209.085352 64.797324 
L 212.845313 68.178764 
L 216.114844 70.824588 
L 219.057422 72.926807 
L 221.836523 74.641101 
L 224.452148 75.996135 
L 226.577344 76.904562 
L 229.192969 77.780182 
L 231.808594 78.386865 
L 234.424219 78.728052 
L 237.039844 78.812286 
L 239.655469 78.653053 
L 242.271094 78.268519 
L 244.886719 77.681203 
L 248.15625 76.702562 
L 252.079688 75.24877 
L 257.310938 73.027555 
L 264.503906 69.957407 
L 268.427344 68.531402 
L 271.696875 67.595108 
L 274.3125 67.059889 
L 276.928125 66.749108 
L 279.54375 66.691186 
L 282.159375 66.910941 
L 284.121094 67.270663 
L 286.082813 67.805565 
L 288.044531 68.521392 
L 290.00625 69.422393 
L 291.967969 70.511272 
L 294.583594 72.257103 
L 297.199219 74.33708 
L 299.814844 76.744489 
L 302.430469 79.467673 
L 305.046094 82.490167 
L 308.315625 86.656695 
L 311.585156 91.207152 
L 315.508594 97.089418 
L 320.085938 104.381543 
L 336.433594 130.949084 
L 340.357031 136.660289 
L 343.626563 141.014455 
L 346.242188 144.183573 
L 348.857813 147.040029 
L 351.473437 149.557231 
L 354.089063 151.712963 
L 356.050781 153.081842 
L 358.0125 154.231921 
L 359.974219 155.159308 
L 361.935938 155.861798 
L 363.897656 156.338904 
L 365.859375 156.591875 
L 367.821094 156.623697 
L 369.782813 156.439091 
L 371.744531 156.044484 
L 373.70625 155.447983 
L 375.667969 154.659318 
L 378.283594 153.328593 
L 380.899219 151.707386 
L 383.514844 149.830939 
L 386.784375 147.186458 
L 390.707812 143.686449 
L 397.900781 136.852349 
L 403.132031 132.038738 
L 406.401563 129.302859 
L 409.017188 127.343294 
L 411.632812 125.637659 
L 414.248438 124.229305 
L 416.210156 123.392232 
L 418.171875 122.760158 
L 420.133594 122.346933 
L 422.095313 122.164838 
L 424.057031 122.224468 
L 426.01875 122.534629 
L 427.980469 123.102243 
L 429.942187 123.932272 
L 431.903906 125.027655 
L 433.865625 126.389253 
L 435.827344 128.015813 
L 437.789062 129.903955 
L 439.750781 132.048161 
L 442.366406 135.291919 
L 444.982031 138.953206 
L 447.597656 143.001747 
L 450.867188 148.551028 
L 454.136719 154.564662 
L 458.060156 162.258178 
L 463.945312 174.381762 
L 471.792188 190.547554 
L 475.715625 198.146288 
L 478.985156 204.025487 
L 481.600781 208.349524 
L 484.216406 212.277451 
L 486.832031 215.759974 
L 488.79375 218.053121 
L 490.755469 220.055084 
L 492.717188 221.752112 
L 494.678906 223.132871 
L 496.640625 224.188592 
L 498.602344 224.913205 
L 500.564063 225.303445 
L 502.525781 225.35895 
L 504.4875 225.082326 
L 506.449219 224.479193 
L 508.410937 223.558204 
L 510.372656 222.331043 
L 512.334375 220.812387 
L 514.296094 219.019854 
L 516.257812 216.973911 
L 518.873438 213.892277 
L 521.489063 210.463782 
L 524.758594 205.796982 
L 529.335938 198.824394 
L 536.528906 187.847212 
L 539.798438 183.28017 
L 542.414062 179.985719 
L 545.029688 177.104461 
L 546.991406 175.264115 
L 548.953125 173.734592 
L 550.914844 172.54575 
L 552.222656 171.955955 
L 553.530469 171.536937 
L 554.838281 171.295291 
L 556.146094 171.236898 
L 557.453906 171.366884 
L 558.761719 171.689575 
L 560.069531 172.208464 
L 561.377344 172.926171 
L 562.685156 173.84441 
L 563.992969 174.963963 
L 565.954688 177.020095 
L 567.916406 179.523779 
L 569.878125 182.465139 
L 571.839844 185.829109 
L 573.801563 189.595402 
L 576.417188 195.198174 
L 579.032812 201.395792 
L 582.302344 209.840807 
L 586.225781 220.720569 
L 597.996094 253.976078 
L 600.611719 260.562344 
L 603.227344 266.535888 
L 605.189062 270.52972 
L 607.150781 274.045275 
L 609.1125 277.031917 
L 610.420313 278.70653 
L 611.728125 280.113841 
L 613.035938 281.243252 
L 614.34375 282.085627 
L 615.651563 282.633403 
L 616.959375 282.880704 
L 618.267187 282.823441 
L 619.575 282.459414 
L 620.882812 281.788397 
L 622.190625 280.812227 
L 623.498438 279.534871 
L 624.80625 277.962497 
L 626.114063 276.103518 
L 628.075781 272.801712 
L 630.0375 268.925578 
L 631.999219 264.532788 
L 634.614844 257.993507 
L 637.884375 249.003815 
L 647.039062 222.986443 
L 649.000781 218.088031 
L 650.9625 213.71647 
L 652.924219 210.001368 
L 654.232031 207.951359 
L 655.539844 206.284144 
L 656.847656 205.033108 
L 658.155469 204.229271 
L 658.809375 204.003988 
L 659.463281 203.900836 
L 660.117188 203.922823 
L 660.771094 204.072721 
L 661.425 204.353053 
L 662.078906 204.766078 
L 663.386719 205.997815 
L 664.694531 207.780108 
L 666.002344 210.119921 
L 667.310156 213.018534 
L 668.617969 216.471085 
L 669.925781 220.466127 
L 671.8875 227.433526 
L 673.849219 235.484664 
L 675.810938 244.486241 
L 678.426563 257.658839 
L 683.003906 282.34758 
L 686.273438 299.471475 
L 688.235156 308.748231 
L 690.196875 316.79336 
L 691.504688 321.27039 
L 692.8125 324.897009 
L 694.120313 327.555259 
L 694.774219 328.485865 
L 695.428125 329.132896 
L 696.082031 329.483718 
L 696.735937 329.526461 
L 697.389844 329.25014 
L 698.04375 328.644784 
L 698.697656 327.701572 
L 699.351562 326.412977 
L 700.005469 324.77292 
L 700.659375 322.776934 
L 701.967188 317.708405 
L 703.275 311.210672 
L 704.582813 303.324896 
L 705.890625 294.137171 
L 707.852344 278.234748 
L 710.467969 254.312658 
L 713.7375 224.310279 
L 715.045313 214.063368 
L 716.353125 205.95314 
L 717.007031 202.992141 
L 717.660938 200.937206 
L 718.314844 199.934641 
L 718.96875 200.142548 
L 719.622656 201.731473 
L 720.276563 204.885085 
L 720.930469 209.800881 
L 721.584375 216.690917 
L 722.238281 225.782572 
L 722.892187 237.319344 
L 723.546094 251.561673 
L 724.2 268.787797 
L 724.853906 289.294652 
L 726.161719 341.437333 
L 726.964522 382.195469 
L 726.964522 382.195469 
" clip-path="url(#p5c43d7ded5)" style="fill: none; stroke: #0000ff; stroke-linecap: square"/>
   </g>
   <g id="line2d_2">
    <path d="M 58.523438 77.527219 
L 59.136475 76.544097 
L 63.059912 70.011823 
L 66.165967 64.431447 
L 68.945068 58.965398 
L 72.582422 51.255366 
L 76.505859 43.067214 
L 78.712793 38.978723 
L 80.551904 36.019895 
L 82.227539 33.727029 
L 83.821436 31.909815 
L 85.374463 30.463948 
L 86.968359 29.278787 
L 88.643994 28.306958 
L 90.564844 27.457828 
L 92.976123 26.651896 
L 97.594336 25.404226 
L 106.585547 23.122738 
L 109.037695 22.78135 
L 111.162891 22.698378 
L 113.288086 22.844943 
L 115.413281 23.228515 
L 117.701953 23.887839 
L 120.317578 24.892684 
L 124.404492 26.749092 
L 128.654883 28.605787 
L 131.433984 29.566738 
L 133.886133 30.17913 
L 136.338281 30.562154 
L 139.117383 30.75618 
L 143.04082 30.770389 
L 147.454688 30.82965 
L 150.070312 31.094269 
L 152.358984 31.554651 
L 154.48418 32.208996 
L 156.609375 33.095105 
L 158.898047 34.302056 
L 161.350195 35.852625 
L 164.45625 38.10075 
L 173.283984 44.68318 
L 175.736133 46.151111 
L 178.024805 47.264845 
L 180.15 48.055262 
L 182.275195 48.609039 
L 184.400391 48.941897 
L 186.852539 49.093983 
L 189.958594 49.041483 
L 196.33418 48.86346 
L 198.622852 49.048358 
L 200.748047 49.443923 
L 202.709766 50.040736 
L 204.671484 50.885247 
L 206.633203 51.989793 
L 208.594922 53.353837 
L 210.720117 55.108277 
L 213.172266 57.44565 
L 216.114844 60.5849 
L 225.596484 70.977795 
L 227.885156 73.008854 
L 229.846875 74.463061 
L 231.808594 75.612036 
L 233.770313 76.4299 
L 235.732031 76.904259 
L 237.039844 77.029996 
L 239.001563 76.943203 
L 240.963281 76.549958 
L 242.925 75.889599 
L 244.886719 75.0136 
L 248.15625 73.245791 
L 252.733594 70.691532 
L 254.695312 69.781883 
L 256.657031 69.090775 
L 258.61875 68.685005 
L 259.926563 68.601906 
L 261.234375 68.685752 
L 262.542188 68.948276 
L 263.85 69.398419 
L 265.157812 70.042156 
L 266.465625 70.882354 
L 267.773438 71.918699 
L 269.735156 73.832388 
L 271.696875 76.153401 
L 273.658594 78.840988 
L 276.274219 82.897887 
L 279.54375 88.494046 
L 286.082813 99.946871 
L 288.698438 104.03856 
L 290.660156 106.739263 
L 292.621875 109.046579 
L 294.583594 110.903771 
L 295.891406 111.870405 
L 297.199219 112.609482 
L 298.507031 113.115932 
L 299.814844 113.388198 
L 301.122656 113.428296 
L 302.430469 113.24181 
L 303.738281 112.83785 
L 305.046094 112.228938 
L 306.353906 111.430853 
L 308.315625 109.920973 
L 310.277344 108.103439 
L 312.892969 105.352659 
L 318.778125 98.938406 
L 320.739844 97.096403 
L 322.701563 95.566721 
L 324.009375 94.763944 
L 325.317187 94.161934 
L 326.625 93.780929 
L 327.932813 93.638101 
L 329.240625 93.747274 
L 330.548438 94.118687 
L 331.85625 94.75881 
L 333.164062 95.670211 
L 334.471875 96.851479 
L 335.779688 98.297211 
L 337.0875 99.998049 
L 339.049219 102.997713 
L 341.010938 106.480805 
L 343.626563 111.741799 
L 346.896094 118.99079 
L 353.435156 133.76677 
L 356.050781 139.015465 
L 358.0125 142.463282 
L 359.974219 145.3898 
L 361.282031 147.013145 
L 362.589844 148.352827 
L 363.897656 149.394752 
L 365.205469 150.128978 
L 366.513281 150.5499 
L 367.821094 150.656379 
L 369.128906 150.451806 
L 370.436719 149.944102 
L 371.744531 149.145653 
L 373.052344 148.073182 
L 374.360156 146.747554 
L 376.321875 144.339573 
L 378.283594 141.516752 
L 380.899219 137.305428 
L 387.438281 126.449764 
L 389.4 123.655024 
L 391.361719 121.303124 
L 392.669531 120.03764 
L 393.977344 119.049194 
L 395.285156 118.363804 
L 396.592969 118.003424 
L 397.900781 117.985575 
L 399.208594 118.323044 
L 400.516406 119.023637 
L 401.824219 120.090007 
L 403.132031 121.519554 
L 404.439844 123.304392 
L 405.747656 125.431399 
L 407.055469 127.882339 
L 409.017188 132.114203 
L 410.978906 136.924371 
L 413.594531 144.030841 
L 418.171875 157.429614 
L 421.441406 166.824459 
L 424.057031 173.670348 
L 426.01875 178.182732 
L 427.980469 182.016072 
L 429.288281 184.13904 
L 430.596094 185.88385 
L 431.903906 187.228778 
L 433.211719 188.157675 
L 434.519531 188.660278 
L 435.827344 188.732451 
L 437.135156 188.37633 
L 438.442969 187.600387 
L 439.750781 186.419397 
L 441.058594 184.854311 
L 442.366406 182.932045 
L 443.674219 180.685165 
L 445.635938 176.790258 
L 447.597656 172.398423 
L 450.867188 164.434661 
L 454.790625 154.878129 
L 456.752344 150.547313 
L 458.714063 146.761661 
L 460.021875 144.624797 
L 461.329688 142.850677 
L 462.6375 141.479573 
L 463.945312 140.546238 
L 465.253125 140.079294 
L 465.907031 140.027852 
L 466.560938 140.100692 
L 467.214844 140.299444 
L 467.86875 140.62527 
L 469.176562 141.6604 
L 470.484375 143.205759 
L 471.792188 145.25319 
L 473.1 147.786701 
L 474.407813 150.782571 
L 475.715625 154.209578 
L 477.677344 160.072686 
L 479.639063 166.660845 
L 482.254687 176.247514 
L 489.447656 203.286164 
L 491.409375 209.744725 
L 493.371094 215.391261 
L 494.678906 218.60958 
L 495.986719 221.333246 
L 497.294531 223.52059 
L 498.602344 225.137853 
L 499.25625 225.724492 
L 499.910156 226.159886 
L 500.564063 226.442332 
L 501.217969 226.57073 
L 501.871875 226.544592 
L 502.525781 226.364053 
L 503.179688 226.029875 
L 503.833594 225.543452 
L 505.141406 224.122596 
L 506.449219 222.125207 
L 507.757031 219.584883 
L 509.064844 216.544748 
L 511.026563 211.163771 
L 512.988281 204.987835 
L 515.603906 195.945806 
L 520.835156 177.607117 
L 522.796875 171.547079 
L 524.104687 167.985406 
L 525.4125 164.897015 
L 526.720313 162.352227 
L 528.028125 160.413323 
L 528.682031 159.688029 
L 529.335938 159.133283 
L 529.989844 158.754067 
L 530.64375 158.554648 
L 531.297656 158.53855 
L 531.951563 158.708531 
L 532.605469 159.066558 
L 533.259375 159.613796 
L 533.913281 160.350585 
L 535.221094 162.390019 
L 536.528906 165.170832 
L 537.836719 168.665497 
L 539.144531 172.833152 
L 540.452344 177.619995 
L 542.414062 185.813492 
L 544.375781 194.978693 
L 547.645313 211.530342 
L 551.56875 231.392548 
L 553.530469 240.422871 
L 555.492188 248.355354 
L 556.8 252.866911 
L 558.107813 256.653879 
L 559.415625 259.641 
L 560.723438 261.766711 
L 561.377344 262.49144 
L 562.03125 262.984731 
L 562.685156 263.243406 
L 563.339062 263.265396 
L 563.992969 263.049764 
L 564.646875 262.59673 
L 565.300781 261.907683 
L 565.954688 260.985194 
L 567.2625 258.456108 
L 568.570312 255.053709 
L 569.878125 250.840837 
L 571.185938 245.898237 
L 573.147656 237.333774 
L 575.763281 224.394707 
L 580.994531 197.560835 
L 582.95625 188.748877 
L 584.264063 183.661233 
L 585.571875 179.362584 
L 586.879688 175.974807 
L 587.533594 174.656134 
L 588.1875 173.603215 
L 588.841406 172.826152 
L 589.495313 172.333666 
L 590.149219 172.133024 
L 590.803125 172.229977 
L 591.457031 172.628696 
L 592.110937 173.331722 
L 592.764844 174.339925 
L 593.41875 175.652466 
L 594.072656 177.266772 
L 595.380469 181.381624 
L 596.688281 186.628802 
L 597.996094 192.924799 
L 599.303906 200.159168 
L 601.265625 212.46663 
L 603.88125 230.707005 
L 608.458594 263.158456 
L 610.420313 275.381247 
L 611.728125 282.439089 
L 613.035938 288.402411 
L 614.34375 293.104657 
L 614.997656 294.938036 
L 615.651563 296.406127 
L 616.305469 297.496455 
L 616.959375 298.198797 
L 617.613281 298.505296 
L 618.267187 298.410569 
L 618.921094 297.911798 
L 619.575 297.008807 
L 620.228906 295.70412 
L 620.882812 294.003015 
L 621.536719 291.913542 
L 622.844531 286.615627 
L 624.152344 279.930246 
L 625.460156 272.020376 
L 627.421875 258.315263 
L 630.0375 237.951379 
L 633.307031 212.514111 
L 635.26875 199.196794 
L 636.576563 191.788097 
L 637.884375 185.889825 
L 638.538281 183.586493 
L 639.192188 181.750798 
L 639.846094 180.406769 
L 640.5 179.575057 
L 641.153906 179.272676 
L 641.807813 179.512761 
L 642.461719 180.30435 
L 643.115625 181.652185 
L 643.769531 183.556555 
L 644.423437 186.013151 
L 645.077344 189.01297 
L 646.385156 196.582421 
L 647.692969 206.097353 
L 649.000781 217.314813 
L 650.9625 236.626799 
L 657.501562 304.73559 
L 658.809375 315.303383 
L 660.117188 323.71127 
L 660.771094 326.976186 
L 661.425 329.555569 
L 662.078906 331.411728 
L 662.732813 332.513257 
L 663.386719 332.835604 
L 664.040625 332.361594 
L 664.694531 331.081902 
L 665.348438 328.995467 
L 666.002344 326.10984 
L 666.65625 322.441449 
L 667.964063 312.867556 
L 669.271875 300.587756 
L 670.579687 286.060361 
L 672.541406 261.388272 
L 675.810938 219.012411 
L 677.11875 204.166449 
L 678.426563 191.862237 
L 679.080469 186.924533 
L 679.734375 182.923138 
L 680.388281 179.942318 
L 681.042188 178.055766 
L 681.696094 177.324999 
L 682.35 177.797822 
L 683.003906 179.50688 
L 683.657812 182.468322 
L 684.311719 186.680614 
L 684.965625 192.123527 
L 686.273438 206.522202 
L 687.58125 225.104033 
L 688.889063 246.985021 
L 694.120313 340.062316 
L 695.428125 356.338648 
L 696.082031 362.252168 
L 696.735937 366.43907 
L 697.389844 368.745524 
L 698.04375 369.046988 
L 698.697656 367.25336 
L 699.351562 363.313949 
L 700.005469 357.222129 
L 700.659375 349.019543 
L 701.313281 338.799681 
L 702.621094 312.957093 
L 703.928906 281.559462 
L 707.198438 198.726763 
L 707.852344 185.2964 
L 708.50625 174.15568 
L 709.160156 165.825188 
L 709.814062 160.78633 
L 710.467969 159.459342 
L 711.121875 162.179438 
L 711.775781 169.171527 
L 712.429688 180.524123 
L 713.083594 196.163255 
L 713.7375 215.827467 
L 715.045313 265.116581 
L 717.86319 382.195469 
M 721.519877 382.195469 
L 721.584375 379.706711 
L 722.238281 342.447345 
L 723.546094 238.542222 
L 724.853906 127.612749 
L 725.507812 93.129658 
L 726.161719 93.921854 
L 726.815625 153.395581 
L 727.469531 302.638741 
L 727.655639 382.195469 
L 727.655639 382.195469 
" clip-path="url(#p5c43d7ded5)" style="fill: none; stroke: #ff0000; stroke-linecap: square"/>
   </g>
   <g id="line2d_3">
    <path d="M 58.523438 77.527219 
L 59.136475 76.54417 
L 62.978174 70.144872 
L 66.288574 64.218197 
L 68.985938 58.943924 
L 71.846777 52.829625 
L 76.301514 43.273626 
L 78.222363 39.721558 
L 79.979736 36.92497 
L 81.69624 34.606801 
L 83.412744 32.655934 
L 85.210986 30.949232 
L 87.090967 29.472261 
L 89.093555 28.183069 
L 91.21875 27.07766 
L 93.507422 26.135654 
L 96.000439 25.351354 
L 98.697803 24.738148 
L 101.517773 24.315284 
L 104.623828 24.065866 
L 108.056836 24.011701 
L 111.816797 24.175899 
L 115.903711 24.57578 
L 120.481055 25.251313 
L 125.548828 26.231113 
L 131.107031 27.535595 
L 137.319141 29.225141 
L 144.348633 31.374487 
L 152.195508 34.0107 
L 161.186719 37.272006 
L 171.485742 41.250337 
L 183.583008 46.170811 
L 197.968945 52.273114 
L 215.624414 60.01618 
L 238.347656 70.236657 
L 273.004688 86.095207 
L 362.589844 127.167896 
L 403.132031 145.465141 
L 441.7125 162.633667 
L 478.985156 178.979597 
L 516.257812 195.08489 
L 553.530469 210.951047 
L 591.457031 226.854927 
L 630.0375 242.790957 
L 669.271875 258.755125 
L 709.160156 274.744544 
L 728.123438 282.263689 
L 728.123438 282.263689 
" clip-path="url(#p5c43d7ded5)" style="fill: none; stroke: #00ff00; stroke-linecap: square"/>
   </g>
   <g id="line2d_4">
    <path d="M 58.523438 77.527219 
L 59.136475 76.544189 
L 62.978174 70.144925 
L 66.288574 64.210015 
L 69.067676 58.782177 
L 71.846777 52.840572 
L 76.260645 43.357479 
L 78.222363 39.719738 
L 79.979736 36.915175 
L 81.69624 34.59283 
L 83.412744 32.643635 
L 85.170117 30.977678 
L 87.050098 29.500651 
L 89.052686 28.210649 
L 91.21875 27.083686 
L 93.548291 26.126835 
L 96.041309 25.34475 
L 98.738672 24.732778 
L 101.68125 24.29702 
L 104.950781 24.049899 
L 108.383789 24.015 
L 112.14375 24.197393 
L 116.394141 24.635086 
L 120.971484 25.334396 
L 126.039258 26.336028 
L 131.760938 27.702178 
L 138.136523 29.462987 
L 145.166016 31.638538 
L 153.176367 34.355355 
L 162.331055 37.702735 
L 172.793555 41.770921 
L 185.054297 46.783955 
L 199.603711 52.979932 
L 217.586133 60.889157 
L 240.963281 71.425196 
L 278.235937 88.501384 
L 358.0125 125.087135 
L 399.208594 143.705465 
L 437.789062 160.899137 
L 475.715625 177.55536 
L 512.988281 193.681763 
L 550.260937 209.568745 
L 588.1875 225.493303 
L 626.767969 241.449716 
L 666.002344 257.433879 
L 705.890625 273.442842 
L 728.123438 282.263688 
L 728.123438 282.263688 
" clip-path="url(#p5c43d7ded5)" style="fill: none; stroke-dasharray: 5.55,2.4; stroke-dashoffset: 0; stroke: #000000; stroke-width: 1.5"/>
   </g>
   <g id="matplotlib.axis_1">
    <g id="xtick_1">
     <g id="line2d_5">
      <path d="M 58.523438 343.639219 
L 58.523438 10.999219 
" clip-path="url(#p5c43d7ded5)" style="fill: none; stroke: #b0b0b0; stroke-width: 0.8; stroke-linecap: square"/>
     </g>
     <g id="line2d_6">
      <defs>
       <path id="mf6b8f59a6d" d="M 0 0 
L 0 3.5 
" style="stroke: #000000; stroke-width: 0.8"/>
      </defs>
      <g>
       <use xlink:href="#mf6b8f59a6d" x="58.523438" y="343.639219" style="stroke: #000000; stroke-width: 0.8"/>
      </g>
     </g>
     <g id="text_1">
      <!-- 0 -->
      <g transform="translate(55.342188 358.237656)scale(0.1 -0.1)">
       <defs>
        <path id="DejaVuSans-30" d="M 2034 4250 
Q 1547 4250 1301 3770 
Q 1056 3291 1056 2328 
Q 1056 1369 1301 889 
Q 1547 409 2034 409 
Q 2525 409 2770 889 
Q 3016 1369 3016 2328 
Q 3016 3291 2770 3770 
Q 2525 4250 2034 4250 
z
M 2034 4750 
Q 2819 4750 3233 4129 
Q 3647 3509 3647 2328 
Q 3647 1150 3233 529 
Q 2819 -91 2034 -91 
Q 1250 -91 836 529 
Q 422 1150 422 2328 
Q 422 3509 836 4129 
Q 1250 4750 2034 4750 
z
" transform="scale(0.015625)"/>
       </defs>
       <use xlink:href="#DejaVuSans-30"/>
      </g>
     </g>
    </g>
    <g id="xtick_2">
     <g id="line2d_7">
      <path d="M 100.373437 343.639219 
L 100.373437 10.999219 
" clip-path="url(#p5c43d7ded5)" style="fill: none; stroke: #b0b0b0; stroke-width: 0.8; stroke-linecap: square"/>
     </g>
     <g id="line2d_8">
      <g>
       <use xlink:href="#mf6b8f59a6d" x="100.373437" y="343.639219" style="stroke: #000000; stroke-width: 0.8"/>
      </g>
     </g>
     <g id="text_2">
      <!-- 1 -->
      <g transform="translate(97.192187 358.237656)scale(0.1 -0.1)">
       <defs>
        <path id="DejaVuSans-31" d="M 794 531 
L 1825 531 
L 1825 4091 
L 703 3866 
L 703 4441 
L 1819 4666 
L 2450 4666 
L 2450 531 
L 3481 531 
L 3481 0 
L 794 0 
L 794 531 
z
" transform="scale(0.015625)"/>
       </defs>
       <use xlink:href="#DejaVuSans-31"/>
      </g>
     </g>
    </g>
    <g id="xtick_3">
     <g id="line2d_9">
      <path d="M 142.223437 343.639219 
L 142.223437 10.999219 
" clip-path="url(#p5c43d7ded5)" style="fill: none; stroke: #b0b0b0; stroke-width: 0.8; stroke-linecap: square"/>
     </g>
     <g id="line2d_10">
      <g>
       <use xlink:href="#mf6b8f59a6d" x="142.223437" y="343.639219" style="stroke: #000000; stroke-width: 0.8"/>
      </g>
     </g>
     <g id="text_3">
      <!-- 2 -->
      <g transform="translate(139.042187 358.237656)scale(0.1 -0.1)">
       <defs>
        <path id="DejaVuSans-32" d="M 1228 531 
L 3431 531 
L 3431 0 
L 469 0 
L 469 531 
Q 828 903 1448 1529 
Q 2069 2156 2228 2338 
Q 2531 2678 2651 2914 
Q 2772 3150 2772 3378 
Q 2772 3750 2511 3984 
Q 2250 4219 1831 4219 
Q 1534 4219 1204 4116 
Q 875 4013 500 3803 
L 500 4441 
Q 881 4594 1212 4672 
Q 1544 4750 1819 4750 
Q 2544 4750 2975 4387 
Q 3406 4025 3406 3419 
Q 3406 3131 3298 2873 
Q 3191 2616 2906 2266 
Q 2828 2175 2409 1742 
Q 1991 1309 1228 531 
z
" transform="scale(0.015625)"/>
       </defs>
       <use xlink:href="#DejaVuSans-32"/>
      </g>
     </g>
    </g>
    <g id="xtick_4">
     <g id="line2d_11">
      <path d="M 184.073438 343.639219 
L 184.073438 10.999219 
" clip-path="url(#p5c43d7ded5)" style="fill: none; stroke: #b0b0b0; stroke-width: 0.8; stroke-linecap: square"/>
     </g>
     <g id="line2d_12">
      <g>
       <use xlink:href="#mf6b8f59a6d" x="184.073438" y="343.639219" style="stroke: #000000; stroke-width: 0.8"/>
      </g>
     </g>
     <g id="text_4">
      <!-- 3 -->
      <g transform="translate(180.892188 358.237656)scale(0.1 -0.1)">
       <defs>
        <path id="DejaVuSans-33" d="M 2597 2516 
Q 3050 2419 3304 2112 
Q 3559 1806 3559 1356 
Q 3559 666 3084 287 
Q 2609 -91 1734 -91 
Q 1441 -91 1130 -33 
Q 819 25 488 141 
L 488 750 
Q 750 597 1062 519 
Q 1375 441 1716 441 
Q 2309 441 2620 675 
Q 2931 909 2931 1356 
Q 2931 1769 2642 2001 
Q 2353 2234 1838 2234 
L 1294 2234 
L 1294 2753 
L 1863 2753 
Q 2328 2753 2575 2939 
Q 2822 3125 2822 3475 
Q 2822 3834 2567 4026 
Q 2313 4219 1838 4219 
Q 1578 4219 1281 4162 
Q 984 4106 628 3988 
L 628 4550 
Q 988 4650 1302 4700 
Q 1616 4750 1894 4750 
Q 2613 4750 3031 4423 
Q 3450 4097 3450 3541 
Q 3450 3153 3228 2886 
Q 3006 2619 2597 2516 
z
" transform="scale(0.015625)"/>
       </defs>
       <use xlink:href="#DejaVuSans-33"/>
      </g>
     </g>
    </g>
    <g id="xtick_5">
     <g id="line2d_13">
      <path d="M 225.923438 343.639219 
L 225.923438 10.999219 
" clip-path="url(#p5c43d7ded5)" style="fill: none; stroke: #b0b0b0; stroke-width: 0.8; stroke-linecap: square"/>
     </g>
     <g id="line2d_14">
      <g>
       <use xlink:href="#mf6b8f59a6d" x="225.923438" y="343.639219" style="stroke: #000000; stroke-width: 0.8"/>
      </g>
     </g>
     <g id="text_5">
      <!-- 4 -->
      <g transform="translate(222.742188 358.237656)scale(0.1 -0.1)">
       <defs>
        <path id="DejaVuSans-34" d="M 2419 4116 
L 825 1625 
L 2419 1625 
L 2419 4116 
z
M 2253 4666 
L 3047 4666 
L 3047 1625 
L 3713 1625 
L 3713 1100 
L 3047 1100 
L 3047 0 
L 2419 0 
L 2419 1100 
L 313 1100 
L 313 1709 
L 2253 4666 
z
" transform="scale(0.015625)"/>
       </defs>
       <use xlink:href="#DejaVuSans-34"/>
      </g>
     </g>
    </g>
    <g id="xtick_6">
     <g id="line2d_15">
      <path d="M 267.773438 343.639219 
L 267.773438 10.999219 
" clip-path="url(#p5c43d7ded5)" style="fill: none; stroke: #b0b0b0; stroke-width: 0.8; stroke-linecap: square"/>
     </g>
     <g id="line2d_16">
      <g>
       <use xlink:href="#mf6b8f59a6d" x="267.773438" y="343.639219" style="stroke: #000000; stroke-width: 0.8"/>
      </g>
     </g>
     <g id="text_6">
      <!-- 5 -->
      <g transform="translate(264.592188 358.237656)scale(0.1 -0.1)">
       <defs>
        <path id="DejaVuSans-35" d="M 691 4666 
L 3169 4666 
L 3169 4134 
L 1269 4134 
L 1269 2991 
Q 1406 3038 1543 3061 
Q 1681 3084 1819 3084 
Q 2600 3084 3056 2656 
Q 3513 2228 3513 1497 
Q 3513 744 3044 326 
Q 2575 -91 1722 -91 
Q 1428 -91 1123 -41 
Q 819 9 494 109 
L 494 744 
Q 775 591 1075 516 
Q 1375 441 1709 441 
Q 2250 441 2565 725 
Q 2881 1009 2881 1497 
Q 2881 1984 2565 2268 
Q 2250 2553 1709 2553 
Q 1456 2553 1204 2497 
Q 953 2441 691 2322 
L 691 4666 
z
" transform="scale(0.015625)"/>
       </defs>
       <use xlink:href="#DejaVuSans-35"/>
      </g>
     </g>
    </g>
    <g id="xtick_7">
     <g id="line2d_17">
      <path d="M 309.623438 343.639219 
L 309.623438 10.999219 
" clip-path="url(#p5c43d7ded5)" style="fill: none; stroke: #b0b0b0; stroke-width: 0.8; stroke-linecap: square"/>
     </g>
     <g id="line2d_18">
      <g>
       <use xlink:href="#mf6b8f59a6d" x="309.623438" y="343.639219" style="stroke: #000000; stroke-width: 0.8"/>
      </g>
     </g>
     <g id="text_7">
      <!-- 6 -->
      <g transform="translate(306.442188 358.237656)scale(0.1 -0.1)">
       <defs>
        <path id="DejaVuSans-36" d="M 2113 2584 
Q 1688 2584 1439 2293 
Q 1191 2003 1191 1497 
Q 1191 994 1439 701 
Q 1688 409 2113 409 
Q 2538 409 2786 701 
Q 3034 994 3034 1497 
Q 3034 2003 2786 2293 
Q 2538 2584 2113 2584 
z
M 3366 4563 
L 3366 3988 
Q 3128 4100 2886 4159 
Q 2644 4219 2406 4219 
Q 1781 4219 1451 3797 
Q 1122 3375 1075 2522 
Q 1259 2794 1537 2939 
Q 1816 3084 2150 3084 
Q 2853 3084 3261 2657 
Q 3669 2231 3669 1497 
Q 3669 778 3244 343 
Q 2819 -91 2113 -91 
Q 1303 -91 875 529 
Q 447 1150 447 2328 
Q 447 3434 972 4092 
Q 1497 4750 2381 4750 
Q 2619 4750 2861 4703 
Q 3103 4656 3366 4563 
z
" transform="scale(0.015625)"/>
       </defs>
       <use xlink:href="#DejaVuSans-36"/>
      </g>
     </g>
    </g>
    <g id="xtick_8">
     <g id="line2d_19">
      <path d="M 351.473437 343.639219 
L 351.473437 10.999219 
" clip-path="url(#p5c43d7ded5)" style="fill: none; stroke: #b0b0b0; stroke-width: 0.8; stroke-linecap: square"/>
     </g>
     <g id="line2d_20">
      <g>
       <use xlink:href="#mf6b8f59a6d" x="351.473437" y="343.639219" style="stroke: #000000; stroke-width: 0.8"/>
      </g>
     </g>
     <g id="text_8">
      <!-- 7 -->
      <g transform="translate(348.292188 358.237656)scale(0.1 -0.1)">
       <defs>
        <path id="DejaVuSans-37" d="M 525 4666 
L 3525 4666 
L 3525 4397 
L 1831 0 
L 1172 0 
L 2766 4134 
L 525 4134 
L 525 4666 
z
" transform="scale(0.015625)"/>
       </defs>
       <use xlink:href="#DejaVuSans-37"/>
      </g>
     </g>
    </g>
    <g id="xtick_9">
     <g id="line2d_21">
      <path d="M 393.323438 343.639219 
L 393.323438 10.999219 
" clip-path="url(#p5c43d7ded5)" style="fill: none; stroke: #b0b0b0; stroke-width: 0.8; stroke-linecap: square"/>
     </g>
     <g id="line2d_22">
      <g>
       <use xlink:href="#mf6b8f59a6d" x="393.323438" y="343.639219" style="stroke: #000000; stroke-width: 0.8"/>
      </g>
     </g>
     <g id="text_9">
      <!-- 8 -->
      <g transform="translate(390.142188 358.237656)scale(0.1 -0.1)">
       <defs>
        <path id="DejaVuSans-38" d="M 2034 2216 
Q 1584 2216 1326 1975 
Q 1069 1734 1069 1313 
Q 1069 891 1326 650 
Q 1584 409 2034 409 
Q 2484 409 2743 651 
Q 3003 894 3003 1313 
Q 3003 1734 2745 1975 
Q 2488 2216 2034 2216 
z
M 1403 2484 
Q 997 2584 770 2862 
Q 544 3141 544 3541 
Q 544 4100 942 4425 
Q 1341 4750 2034 4750 
Q 2731 4750 3128 4425 
Q 3525 4100 3525 3541 
Q 3525 3141 3298 2862 
Q 3072 2584 2669 2484 
Q 3125 2378 3379 2068 
Q 3634 1759 3634 1313 
Q 3634 634 3220 271 
Q 2806 -91 2034 -91 
Q 1263 -91 848 271 
Q 434 634 434 1313 
Q 434 1759 690 2068 
Q 947 2378 1403 2484 
z
M 1172 3481 
Q 1172 3119 1398 2916 
Q 1625 2713 2034 2713 
Q 2441 2713 2670 2916 
Q 2900 3119 2900 3481 
Q 2900 3844 2670 4047 
Q 2441 4250 2034 4250 
Q 1625 4250 1398 4047 
Q 1172 3844 1172 3481 
z
" transform="scale(0.015625)"/>
       </defs>
       <use xlink:href="#DejaVuSans-38"/>
      </g>
     </g>
    </g>
    <g id="xtick_10">
     <g id="line2d_23">
      <path d="M 435.173438 343.639219 
L 435.173438 10.999219 
" clip-path="url(#p5c43d7ded5)" style="fill: none; stroke: #b0b0b0; stroke-width: 0.8; stroke-linecap: square"/>
     </g>
     <g id="line2d_24">
      <g>
       <use xlink:href="#mf6b8f59a6d" x="435.173438" y="343.639219" style="stroke: #000000; stroke-width: 0.8"/>
      </g>
     </g>
     <g id="text_10">
      <!-- 9 -->
      <g transform="translate(431.992188 358.237656)scale(0.1 -0.1)">
       <defs>
        <path id="DejaVuSans-39" d="M 703 97 
L 703 672 
Q 941 559 1184 500 
Q 1428 441 1663 441 
Q 2288 441 2617 861 
Q 2947 1281 2994 2138 
Q 2813 1869 2534 1725 
Q 2256 1581 1919 1581 
Q 1219 1581 811 2004 
Q 403 2428 403 3163 
Q 403 3881 828 4315 
Q 1253 4750 1959 4750 
Q 2769 4750 3195 4129 
Q 3622 3509 3622 2328 
Q 3622 1225 3098 567 
Q 2575 -91 1691 -91 
Q 1453 -91 1209 -44 
Q 966 3 703 97 
z
M 1959 2075 
Q 2384 2075 2632 2365 
Q 2881 2656 2881 3163 
Q 2881 3666 2632 3958 
Q 2384 4250 1959 4250 
Q 1534 4250 1286 3958 
Q 1038 3666 1038 3163 
Q 1038 2656 1286 2365 
Q 1534 2075 1959 2075 
z
" transform="scale(0.015625)"/>
       </defs>
       <use xlink:href="#DejaVuSans-39"/>
      </g>
     </g>
    </g>
    <g id="xtick_11">
     <g id="line2d_25">
      <path d="M 477.023438 343.639219 
L 477.023438 10.999219 
" clip-path="url(#p5c43d7ded5)" style="fill: none; stroke: #b0b0b0; stroke-width: 0.8; stroke-linecap: square"/>
     </g>
     <g id="line2d_26">
      <g>
       <use xlink:href="#mf6b8f59a6d" x="477.023438" y="343.639219" style="stroke: #000000; stroke-width: 0.8"/>
      </g>
     </g>
     <g id="text_11">
      <!-- 10 -->
      <g transform="translate(470.660937 358.237656)scale(0.1 -0.1)">
       <use xlink:href="#DejaVuSans-31"/>
       <use xlink:href="#DejaVuSans-30" x="63.623047"/>
      </g>
     </g>
    </g>
    <g id="xtick_12">
     <g id="line2d_27">
      <path d="M 518.873438 343.639219 
L 518.873438 10.999219 
" clip-path="url(#p5c43d7ded5)" style="fill: none; stroke: #b0b0b0; stroke-width: 0.8; stroke-linecap: square"/>
     </g>
     <g id="line2d_28">
      <g>
       <use xlink:href="#mf6b8f59a6d" x="518.873438" y="343.639219" style="stroke: #000000; stroke-width: 0.8"/>
      </g>
     </g>
     <g id="text_12">
      <!-- 11 -->
      <g transform="translate(512.510938 358.237656)scale(0.1 -0.1)">
       <use xlink:href="#DejaVuSans-31"/>
       <use xlink:href="#DejaVuSans-31" x="63.623047"/>
      </g>
     </g>
    </g>
    <g id="xtick_13">
     <g id="line2d_29">
      <path d="M 560.723438 343.639219 
L 560.723438 10.999219 
" clip-path="url(#p5c43d7ded5)" style="fill: none; stroke: #b0b0b0; stroke-width: 0.8; stroke-linecap: square"/>
     </g>
     <g id="line2d_30">
      <g>
       <use xlink:href="#mf6b8f59a6d" x="560.723438" y="343.639219" style="stroke: #000000; stroke-width: 0.8"/>
      </g>
     </g>
     <g id="text_13">
      <!-- 12 -->
      <g transform="translate(554.360938 358.237656)scale(0.1 -0.1)">
       <use xlink:href="#DejaVuSans-31"/>
       <use xlink:href="#DejaVuSans-32" x="63.623047"/>
      </g>
     </g>
    </g>
    <g id="xtick_14">
     <g id="line2d_31">
      <path d="M 602.573438 343.639219 
L 602.573438 10.999219 
" clip-path="url(#p5c43d7ded5)" style="fill: none; stroke: #b0b0b0; stroke-width: 0.8; stroke-linecap: square"/>
     </g>
     <g id="line2d_32">
      <g>
       <use xlink:href="#mf6b8f59a6d" x="602.573438" y="343.639219" style="stroke: #000000; stroke-width: 0.8"/>
      </g>
     </g>
     <g id="text_14">
      <!-- 13 -->
      <g transform="translate(596.210938 358.237656)scale(0.1 -0.1)">
       <use xlink:href="#DejaVuSans-31"/>
       <use xlink:href="#DejaVuSans-33" x="63.623047"/>
      </g>
     </g>
    </g>
    <g id="xtick_15">
     <g id="line2d_33">
      <path d="M 644.423437 343.639219 
L 644.423437 10.999219 
" clip-path="url(#p5c43d7ded5)" style="fill: none; stroke: #b0b0b0; stroke-width: 0.8; stroke-linecap: square"/>
     </g>
     <g id="line2d_34">
      <g>
       <use xlink:href="#mf6b8f59a6d" x="644.423437" y="343.639219" style="stroke: #000000; stroke-width: 0.8"/>
      </g>
     </g>
     <g id="text_15">
      <!-- 14 -->
      <g transform="translate(638.060938 358.237656)scale(0.1 -0.1)">
       <use xlink:href="#DejaVuSans-31"/>
       <use xlink:href="#DejaVuSans-34" x="63.623047"/>
      </g>
     </g>
    </g>
    <g id="xtick_16">
     <g id="line2d_35">
      <path d="M 686.273438 343.639219 
L 686.273438 10.999219 
" clip-path="url(#p5c43d7ded5)" style="fill: none; stroke: #b0b0b0; stroke-width: 0.8; stroke-linecap: square"/>
     </g>
     <g id="line2d_36">
      <g>
       <use xlink:href="#mf6b8f59a6d" x="686.273438" y="343.639219" style="stroke: #000000; stroke-width: 0.8"/>
      </g>
     </g>
     <g id="text_16">
      <!-- 15 -->
      <g transform="translate(679.910938 358.237656)scale(0.1 -0.1)">
       <use xlink:href="#DejaVuSans-31"/>
       <use xlink:href="#DejaVuSans-35" x="63.623047"/>
      </g>
     </g>
    </g>
    <g id="xtick_17">
     <g id="line2d_37">
      <path d="M 728.123438 343.639219 
L 728.123438 10.999219 
" clip-path="url(#p5c43d7ded5)" style="fill: none; stroke: #b0b0b0; stroke-width: 0.8; stroke-linecap: square"/>
     </g>
     <g id="line2d_38">
      <g>
       <use xlink:href="#mf6b8f59a6d" x="728.123438" y="343.639219" style="stroke: #000000; stroke-width: 0.8"/>
      </g>
     </g>
     <g id="text_17">
      <!-- 16 -->
      <g transform="translate(721.760938 358.237656)scale(0.1 -0.1)">
       <use xlink:href="#DejaVuSans-31"/>
       <use xlink:href="#DejaVuSans-36" x="63.623047"/>
      </g>
     </g>
    </g>
    <g id="text_18">
     <!-- $x$ -->
     <g transform="translate(390.323438 371.915781)scale(0.1 -0.1)">
      <defs>
       <path id="DejaVuSans-Oblique-78" d="M 3841 3500 
L 2234 1784 
L 3219 0 
L 2559 0 
L 1819 1388 
L 531 0 
L -166 0 
L 1556 1844 
L 641 3500 
L 1300 3500 
L 1972 2234 
L 3144 3500 
L 3841 3500 
z
" transform="scale(0.015625)"/>
      </defs>
      <use xlink:href="#DejaVuSans-Oblique-78" transform="translate(0 0.3125)"/>
     </g>
    </g>
   </g>
   <g id="matplotlib.axis_2">
    <g id="ytick_1">
     <g id="line2d_39">
      <path d="M 58.523438 343.639219 
L 728.123438 343.639219 
" clip-path="url(#p5c43d7ded5)" style="fill: none; stroke: #b0b0b0; stroke-width: 0.8; stroke-linecap: square"/>
     </g>
     <g id="line2d_40">
      <defs>
       <path id="mbca00e3633" d="M 0 0 
L -3.5 0 
" style="stroke: #000000; stroke-width: 0.8"/>
      </defs>
      <g>
       <use xlink:href="#mbca00e3633" x="58.523438" y="343.639219" style="stroke: #000000; stroke-width: 0.8"/>
      </g>
     </g>
     <g id="text_19">
      <!-- −2.00 -->
      <g transform="translate(20.878125 347.438438)scale(0.1 -0.1)">
       <defs>
        <path id="DejaVuSans-2212" d="M 678 2272 
L 4684 2272 
L 4684 1741 
L 678 1741 
L 678 2272 
z
" transform="scale(0.015625)"/>
        <path id="DejaVuSans-2e" d="M 684 794 
L 1344 794 
L 1344 0 
L 684 0 
L 684 794 
z
" transform="scale(0.015625)"/>
       </defs>
       <use xlink:href="#DejaVuSans-2212"/>
       <use xlink:href="#DejaVuSans-32" x="83.789062"/>
       <use xlink:href="#DejaVuSans-2e" x="147.412109"/>
       <use xlink:href="#DejaVuSans-30" x="179.199219"/>
       <use xlink:href="#DejaVuSans-30" x="242.822266"/>
      </g>
     </g>
    </g>
    <g id="ytick_2">
     <g id="line2d_41">
      <path d="M 58.523438 310.375219 
L 728.123438 310.375219 
" clip-path="url(#p5c43d7ded5)" style="fill: none; stroke: #b0b0b0; stroke-width: 0.8; stroke-linecap: square"/>
     </g>
     <g id="line2d_42">
      <g>
       <use xlink:href="#mbca00e3633" x="58.523438" y="310.375219" style="stroke: #000000; stroke-width: 0.8"/>
      </g>
     </g>
     <g id="text_20">
      <!-- −1.75 -->
      <g transform="translate(20.878125 314.174437)scale(0.1 -0.1)">
       <use xlink:href="#DejaVuSans-2212"/>
       <use xlink:href="#DejaVuSans-31" x="83.789062"/>
       <use xlink:href="#DejaVuSans-2e" x="147.412109"/>
       <use xlink:href="#DejaVuSans-37" x="179.199219"/>
       <use xlink:href="#DejaVuSans-35" x="242.822266"/>
      </g>
     </g>
    </g>
    <g id="ytick_3">
     <g id="line2d_43">
      <path d="M 58.523438 277.111219 
L 728.123438 277.111219 
" clip-path="url(#p5c43d7ded5)" style="fill: none; stroke: #b0b0b0; stroke-width: 0.8; stroke-linecap: square"/>
     </g>
     <g id="line2d_44">
      <g>
       <use xlink:href="#mbca00e3633" x="58.523438" y="277.111219" style="stroke: #000000; stroke-width: 0.8"/>
      </g>
     </g>
     <g id="text_21">
      <!-- −1.50 -->
      <g transform="translate(20.878125 280.910437)scale(0.1 -0.1)">
       <use xlink:href="#DejaVuSans-2212"/>
       <use xlink:href="#DejaVuSans-31" x="83.789062"/>
       <use xlink:href="#DejaVuSans-2e" x="147.412109"/>
       <use xlink:href="#DejaVuSans-35" x="179.199219"/>
       <use xlink:href="#DejaVuSans-30" x="242.822266"/>
      </g>
     </g>
    </g>
    <g id="ytick_4">
     <g id="line2d_45">
      <path d="M 58.523438 243.847219 
L 728.123438 243.847219 
" clip-path="url(#p5c43d7ded5)" style="fill: none; stroke: #b0b0b0; stroke-width: 0.8; stroke-linecap: square"/>
     </g>
     <g id="line2d_46">
      <g>
       <use xlink:href="#mbca00e3633" x="58.523438" y="243.847219" style="stroke: #000000; stroke-width: 0.8"/>
      </g>
     </g>
     <g id="text_22">
      <!-- −1.25 -->
      <g transform="translate(20.878125 247.646437)scale(0.1 -0.1)">
       <use xlink:href="#DejaVuSans-2212"/>
       <use xlink:href="#DejaVuSans-31" x="83.789062"/>
       <use xlink:href="#DejaVuSans-2e" x="147.412109"/>
       <use xlink:href="#DejaVuSans-32" x="179.199219"/>
       <use xlink:href="#DejaVuSans-35" x="242.822266"/>
      </g>
     </g>
    </g>
    <g id="ytick_5">
     <g id="line2d_47">
      <path d="M 58.523438 210.583219 
L 728.123438 210.583219 
" clip-path="url(#p5c43d7ded5)" style="fill: none; stroke: #b0b0b0; stroke-width: 0.8; stroke-linecap: square"/>
     </g>
     <g id="line2d_48">
      <g>
       <use xlink:href="#mbca00e3633" x="58.523438" y="210.583219" style="stroke: #000000; stroke-width: 0.8"/>
      </g>
     </g>
     <g id="text_23">
      <!-- −1.00 -->
      <g transform="translate(20.878125 214.382437)scale(0.1 -0.1)">
       <use xlink:href="#DejaVuSans-2212"/>
       <use xlink:href="#DejaVuSans-31" x="83.789062"/>
       <use xlink:href="#DejaVuSans-2e" x="147.412109"/>
       <use xlink:href="#DejaVuSans-30" x="179.199219"/>
       <use xlink:href="#DejaVuSans-30" x="242.822266"/>
      </g>
     </g>
    </g>
    <g id="ytick_6">
     <g id="line2d_49">
      <path d="M 58.523438 177.319219 
L 728.123438 177.319219 
" clip-path="url(#p5c43d7ded5)" style="fill: none; stroke: #b0b0b0; stroke-width: 0.8; stroke-linecap: square"/>
     </g>
     <g id="line2d_50">
      <g>
       <use xlink:href="#mbca00e3633" x="58.523438" y="177.319219" style="stroke: #000000; stroke-width: 0.8"/>
      </g>
     </g>
     <g id="text_24">
      <!-- −0.75 -->
      <g transform="translate(20.878125 181.118437)scale(0.1 -0.1)">
       <use xlink:href="#DejaVuSans-2212"/>
       <use xlink:href="#DejaVuSans-30" x="83.789062"/>
       <use xlink:href="#DejaVuSans-2e" x="147.412109"/>
       <use xlink:href="#DejaVuSans-37" x="179.199219"/>
       <use xlink:href="#DejaVuSans-35" x="242.822266"/>
      </g>
     </g>
    </g>
    <g id="ytick_7">
     <g id="line2d_51">
      <path d="M 58.523438 144.055219 
L 728.123438 144.055219 
" clip-path="url(#p5c43d7ded5)" style="fill: none; stroke: #b0b0b0; stroke-width: 0.8; stroke-linecap: square"/>
     </g>
     <g id="line2d_52">
      <g>
       <use xlink:href="#mbca00e3633" x="58.523438" y="144.055219" style="stroke: #000000; stroke-width: 0.8"/>
      </g>
     </g>
     <g id="text_25">
      <!-- −0.50 -->
      <g transform="translate(20.878125 147.854437)scale(0.1 -0.1)">
       <use xlink:href="#DejaVuSans-2212"/>
       <use xlink:href="#DejaVuSans-30" x="83.789062"/>
       <use xlink:href="#DejaVuSans-2e" x="147.412109"/>
       <use xlink:href="#DejaVuSans-35" x="179.199219"/>
       <use xlink:href="#DejaVuSans-30" x="242.822266"/>
      </g>
     </g>
    </g>
    <g id="ytick_8">
     <g id="line2d_53">
      <path d="M 58.523438 110.791219 
L 728.123438 110.791219 
" clip-path="url(#p5c43d7ded5)" style="fill: none; stroke: #b0b0b0; stroke-width: 0.8; stroke-linecap: square"/>
     </g>
     <g id="line2d_54">
      <g>
       <use xlink:href="#mbca00e3633" x="58.523438" y="110.791219" style="stroke: #000000; stroke-width: 0.8"/>
      </g>
     </g>
     <g id="text_26">
      <!-- −0.25 -->
      <g transform="translate(20.878125 114.590438)scale(0.1 -0.1)">
       <use xlink:href="#DejaVuSans-2212"/>
       <use xlink:href="#DejaVuSans-30" x="83.789062"/>
       <use xlink:href="#DejaVuSans-2e" x="147.412109"/>
       <use xlink:href="#DejaVuSans-32" x="179.199219"/>
       <use xlink:href="#DejaVuSans-35" x="242.822266"/>
      </g>
     </g>
    </g>
    <g id="ytick_9">
     <g id="line2d_55">
      <path d="M 58.523438 77.527219 
L 728.123438 77.527219 
" clip-path="url(#p5c43d7ded5)" style="fill: none; stroke: #b0b0b0; stroke-width: 0.8; stroke-linecap: square"/>
     </g>
     <g id="line2d_56">
      <g>
       <use xlink:href="#mbca00e3633" x="58.523438" y="77.527219" style="stroke: #000000; stroke-width: 0.8"/>
      </g>
     </g>
     <g id="text_27">
      <!-- 0.00 -->
      <g transform="translate(29.257812 81.326437)scale(0.1 -0.1)">
       <use xlink:href="#DejaVuSans-30"/>
       <use xlink:href="#DejaVuSans-2e" x="63.623047"/>
       <use xlink:href="#DejaVuSans-30" x="95.410156"/>
       <use xlink:href="#DejaVuSans-30" x="159.033203"/>
      </g>
     </g>
    </g>
    <g id="ytick_10">
     <g id="line2d_57">
      <path d="M 58.523438 44.263219 
L 728.123438 44.263219 
" clip-path="url(#p5c43d7ded5)" style="fill: none; stroke: #b0b0b0; stroke-width: 0.8; stroke-linecap: square"/>
     </g>
     <g id="line2d_58">
      <g>
       <use xlink:href="#mbca00e3633" x="58.523438" y="44.263219" style="stroke: #000000; stroke-width: 0.8"/>
      </g>
     </g>
     <g id="text_28">
      <!-- 0.25 -->
      <g transform="translate(29.257812 48.062437)scale(0.1 -0.1)">
       <use xlink:href="#DejaVuSans-30"/>
       <use xlink:href="#DejaVuSans-2e" x="63.623047"/>
       <use xlink:href="#DejaVuSans-32" x="95.410156"/>
       <use xlink:href="#DejaVuSans-35" x="159.033203"/>
      </g>
     </g>
    </g>
    <g id="ytick_11">
     <g id="line2d_59">
      <path d="M 58.523438 10.999219 
L 728.123438 10.999219 
" clip-path="url(#p5c43d7ded5)" style="fill: none; stroke: #b0b0b0; stroke-width: 0.8; stroke-linecap: square"/>
     </g>
     <g id="line2d_60">
      <g>
       <use xlink:href="#mbca00e3633" x="58.523438" y="10.999219" style="stroke: #000000; stroke-width: 0.8"/>
      </g>
     </g>
     <g id="text_29">
      <!-- 0.50 -->
      <g transform="translate(29.257812 14.798437)scale(0.1 -0.1)">
       <use xlink:href="#DejaVuSans-30"/>
       <use xlink:href="#DejaVuSans-2e" x="63.623047"/>
       <use xlink:href="#DejaVuSans-35" x="95.410156"/>
       <use xlink:href="#DejaVuSans-30" x="159.033203"/>
      </g>
     </g>
    </g>
    <g id="text_30">
     <!-- $y$ -->
     <g transform="translate(14.778125 180.319219)rotate(-90)scale(0.1 -0.1)">
      <defs>
       <path id="DejaVuSans-Oblique-79" d="M 1588 -325 
Q 1188 -997 936 -1164 
Q 684 -1331 294 -1331 
L -159 -1331 
L -63 -850 
L 269 -850 
Q 509 -850 678 -719 
Q 847 -588 1056 -206 
L 1234 128 
L 459 3500 
L 1069 3500 
L 1650 819 
L 3256 3500 
L 3859 3500 
L 1588 -325 
z
" transform="scale(0.015625)"/>
      </defs>
      <use xlink:href="#DejaVuSans-Oblique-79" transform="translate(0 0.3125)"/>
     </g>
    </g>
   </g>
   <g id="patch_3">
    <path d="M 58.523438 343.639219 
L 58.523438 10.999219 
" style="fill: none; stroke: #000000; stroke-width: 0.8; stroke-linejoin: miter; stroke-linecap: square"/>
   </g>
   <g id="patch_4">
    <path d="M 728.123438 343.639219 
L 728.123438 10.999219 
" style="fill: none; stroke: #000000; stroke-width: 0.8; stroke-linejoin: miter; stroke-linecap: square"/>
   </g>
   <g id="patch_5">
    <path d="M 58.523438 343.639219 
L 728.123438 343.639219 
" style="fill: none; stroke: #000000; stroke-width: 0.8; stroke-linejoin: miter; stroke-linecap: square"/>
   </g>
   <g id="patch_6">
    <path d="M 58.523438 10.999219 
L 728.123438 10.999219 
" style="fill: none; stroke: #000000; stroke-width: 0.8; stroke-linejoin: miter; stroke-linecap: square"/>
   </g>
   <g id="legend_1">
    <g id="patch_7">
     <path d="M 604.009375 77.711719 
L 721.123438 77.711719 
Q 723.123438 77.711719 723.123438 75.711719 
L 723.123438 17.999219 
Q 723.123438 15.999219 721.123438 15.999219 
L 604.009375 15.999219 
Q 602.009375 15.999219 602.009375 17.999219 
L 602.009375 75.711719 
Q 602.009375 77.711719 604.009375 77.711719 
z
" style="fill: #ffffff; opacity: 0.8; stroke: #cccccc; stroke-linejoin: miter"/>
    </g>
    <g id="line2d_61">
     <path d="M 606.009375 24.097656 
L 616.009375 24.097656 
L 626.009375 24.097656 
" style="fill: none; stroke-dasharray: 5.55,2.4; stroke-dashoffset: 0; stroke: #000000; stroke-width: 1.5"/>
    </g>
    <g id="text_31">
     <!-- target -->
     <g transform="translate(634.009375 27.597656)scale(0.1 -0.1)">
      <defs>
       <path id="DejaVuSans-74" d="M 1172 4494 
L 1172 3500 
L 2356 3500 
L 2356 3053 
L 1172 3053 
L 1172 1153 
Q 1172 725 1289 603 
Q 1406 481 1766 481 
L 2356 481 
L 2356 0 
L 1766 0 
Q 1100 0 847 248 
Q 594 497 594 1153 
L 594 3053 
L 172 3053 
L 172 3500 
L 594 3500 
L 594 4494 
L 1172 4494 
z
" transform="scale(0.015625)"/>
       <path id="DejaVuSans-61" d="M 2194 1759 
Q 1497 1759 1228 1600 
Q 959 1441 959 1056 
Q 959 750 1161 570 
Q 1363 391 1709 391 
Q 2188 391 2477 730 
Q 2766 1069 2766 1631 
L 2766 1759 
L 2194 1759 
z
M 3341 1997 
L 3341 0 
L 2766 0 
L 2766 531 
Q 2569 213 2275 61 
Q 1981 -91 1556 -91 
Q 1019 -91 701 211 
Q 384 513 384 1019 
Q 384 1609 779 1909 
Q 1175 2209 1959 2209 
L 2766 2209 
L 2766 2266 
Q 2766 2663 2505 2880 
Q 2244 3097 1772 3097 
Q 1472 3097 1187 3025 
Q 903 2953 641 2809 
L 641 3341 
Q 956 3463 1253 3523 
Q 1550 3584 1831 3584 
Q 2591 3584 2966 3190 
Q 3341 2797 3341 1997 
z
" transform="scale(0.015625)"/>
       <path id="DejaVuSans-72" d="M 2631 2963 
Q 2534 3019 2420 3045 
Q 2306 3072 2169 3072 
Q 1681 3072 1420 2755 
Q 1159 2438 1159 1844 
L 1159 0 
L 581 0 
L 581 3500 
L 1159 3500 
L 1159 2956 
Q 1341 3275 1631 3429 
Q 1922 3584 2338 3584 
Q 2397 3584 2469 3576 
Q 2541 3569 2628 3553 
L 2631 2963 
z
" transform="scale(0.015625)"/>
       <path id="DejaVuSans-67" d="M 2906 1791 
Q 2906 2416 2648 2759 
Q 2391 3103 1925 3103 
Q 1463 3103 1205 2759 
Q 947 2416 947 1791 
Q 947 1169 1205 825 
Q 1463 481 1925 481 
Q 2391 481 2648 825 
Q 2906 1169 2906 1791 
z
M 3481 434 
Q 3481 -459 3084 -895 
Q 2688 -1331 1869 -1331 
Q 1566 -1331 1297 -1286 
Q 1028 -1241 775 -1147 
L 775 -588 
Q 1028 -725 1275 -790 
Q 1522 -856 1778 -856 
Q 2344 -856 2625 -561 
Q 2906 -266 2906 331 
L 2906 616 
Q 2728 306 2450 153 
Q 2172 0 1784 0 
Q 1141 0 747 490 
Q 353 981 353 1791 
Q 353 2603 747 3093 
Q 1141 3584 1784 3584 
Q 2172 3584 2450 3431 
Q 2728 3278 2906 2969 
L 2906 3500 
L 3481 3500 
L 3481 434 
z
" transform="scale(0.015625)"/>
       <path id="DejaVuSans-65" d="M 3597 1894 
L 3597 1613 
L 953 1613 
Q 991 1019 1311 708 
Q 1631 397 2203 397 
Q 2534 397 2845 478 
Q 3156 559 3463 722 
L 3463 178 
Q 3153 47 2828 -22 
Q 2503 -91 2169 -91 
Q 1331 -91 842 396 
Q 353 884 353 1716 
Q 353 2575 817 3079 
Q 1281 3584 2069 3584 
Q 2775 3584 3186 3129 
Q 3597 2675 3597 1894 
z
M 3022 2063 
Q 3016 2534 2758 2815 
Q 2500 3097 2075 3097 
Q 1594 3097 1305 2825 
Q 1016 2553 972 2059 
L 3022 2063 
z
" transform="scale(0.015625)"/>
      </defs>
      <use xlink:href="#DejaVuSans-74"/>
      <use xlink:href="#DejaVuSans-61" x="39.208984"/>
      <use xlink:href="#DejaVuSans-72" x="100.488281"/>
      <use xlink:href="#DejaVuSans-67" x="139.851562"/>
      <use xlink:href="#DejaVuSans-65" x="203.328125"/>
      <use xlink:href="#DejaVuSans-74" x="264.851562"/>
     </g>
    </g>
    <g id="line2d_62">
     <path d="M 606.009375 38.775781 
L 616.009375 38.775781 
L 626.009375 38.775781 
" style="fill: none; stroke: #0000ff; stroke-linecap: square"/>
    </g>
    <g id="text_32">
     <!-- poly(degree=16) -->
     <g transform="translate(634.009375 42.275781)scale(0.1 -0.1)">
      <defs>
       <path id="DejaVuSans-70" d="M 1159 525 
L 1159 -1331 
L 581 -1331 
L 581 3500 
L 1159 3500 
L 1159 2969 
Q 1341 3281 1617 3432 
Q 1894 3584 2278 3584 
Q 2916 3584 3314 3078 
Q 3713 2572 3713 1747 
Q 3713 922 3314 415 
Q 2916 -91 2278 -91 
Q 1894 -91 1617 61 
Q 1341 213 1159 525 
z
M 3116 1747 
Q 3116 2381 2855 2742 
Q 2594 3103 2138 3103 
Q 1681 3103 1420 2742 
Q 1159 2381 1159 1747 
Q 1159 1113 1420 752 
Q 1681 391 2138 391 
Q 2594 391 2855 752 
Q 3116 1113 3116 1747 
z
" transform="scale(0.015625)"/>
       <path id="DejaVuSans-6f" d="M 1959 3097 
Q 1497 3097 1228 2736 
Q 959 2375 959 1747 
Q 959 1119 1226 758 
Q 1494 397 1959 397 
Q 2419 397 2687 759 
Q 2956 1122 2956 1747 
Q 2956 2369 2687 2733 
Q 2419 3097 1959 3097 
z
M 1959 3584 
Q 2709 3584 3137 3096 
Q 3566 2609 3566 1747 
Q 3566 888 3137 398 
Q 2709 -91 1959 -91 
Q 1206 -91 779 398 
Q 353 888 353 1747 
Q 353 2609 779 3096 
Q 1206 3584 1959 3584 
z
" transform="scale(0.015625)"/>
       <path id="DejaVuSans-6c" d="M 603 4863 
L 1178 4863 
L 1178 0 
L 603 0 
L 603 4863 
z
" transform="scale(0.015625)"/>
       <path id="DejaVuSans-79" d="M 2059 -325 
Q 1816 -950 1584 -1140 
Q 1353 -1331 966 -1331 
L 506 -1331 
L 506 -850 
L 844 -850 
Q 1081 -850 1212 -737 
Q 1344 -625 1503 -206 
L 1606 56 
L 191 3500 
L 800 3500 
L 1894 763 
L 2988 3500 
L 3597 3500 
L 2059 -325 
z
" transform="scale(0.015625)"/>
       <path id="DejaVuSans-28" d="M 1984 4856 
Q 1566 4138 1362 3434 
Q 1159 2731 1159 2009 
Q 1159 1288 1364 580 
Q 1569 -128 1984 -844 
L 1484 -844 
Q 1016 -109 783 600 
Q 550 1309 550 2009 
Q 550 2706 781 3412 
Q 1013 4119 1484 4856 
L 1984 4856 
z
" transform="scale(0.015625)"/>
       <path id="DejaVuSans-64" d="M 2906 2969 
L 2906 4863 
L 3481 4863 
L 3481 0 
L 2906 0 
L 2906 525 
Q 2725 213 2448 61 
Q 2172 -91 1784 -91 
Q 1150 -91 751 415 
Q 353 922 353 1747 
Q 353 2572 751 3078 
Q 1150 3584 1784 3584 
Q 2172 3584 2448 3432 
Q 2725 3281 2906 2969 
z
M 947 1747 
Q 947 1113 1208 752 
Q 1469 391 1925 391 
Q 2381 391 2643 752 
Q 2906 1113 2906 1747 
Q 2906 2381 2643 2742 
Q 2381 3103 1925 3103 
Q 1469 3103 1208 2742 
Q 947 2381 947 1747 
z
" transform="scale(0.015625)"/>
       <path id="DejaVuSans-3d" d="M 678 2906 
L 4684 2906 
L 4684 2381 
L 678 2381 
L 678 2906 
z
M 678 1631 
L 4684 1631 
L 4684 1100 
L 678 1100 
L 678 1631 
z
" transform="scale(0.015625)"/>
       <path id="DejaVuSans-29" d="M 513 4856 
L 1013 4856 
Q 1481 4119 1714 3412 
Q 1947 2706 1947 2009 
Q 1947 1309 1714 600 
Q 1481 -109 1013 -844 
L 513 -844 
Q 928 -128 1133 580 
Q 1338 1288 1338 2009 
Q 1338 2731 1133 3434 
Q 928 4138 513 4856 
z
" transform="scale(0.015625)"/>
      </defs>
      <use xlink:href="#DejaVuSans-70"/>
      <use xlink:href="#DejaVuSans-6f" x="63.476562"/>
      <use xlink:href="#DejaVuSans-6c" x="124.658203"/>
      <use xlink:href="#DejaVuSans-79" x="152.441406"/>
      <use xlink:href="#DejaVuSans-28" x="211.621094"/>
      <use xlink:href="#DejaVuSans-64" x="250.634766"/>
      <use xlink:href="#DejaVuSans-65" x="314.111328"/>
      <use xlink:href="#DejaVuSans-67" x="375.634766"/>
      <use xlink:href="#DejaVuSans-72" x="439.111328"/>
      <use xlink:href="#DejaVuSans-65" x="477.974609"/>
      <use xlink:href="#DejaVuSans-65" x="539.498047"/>
      <use xlink:href="#DejaVuSans-3d" x="601.021484"/>
      <use xlink:href="#DejaVuSans-31" x="684.810547"/>
      <use xlink:href="#DejaVuSans-36" x="748.433594"/>
      <use xlink:href="#DejaVuSans-29" x="812.056641"/>
     </g>
    </g>
    <g id="line2d_63">
     <path d="M 606.009375 53.453906 
L 616.009375 53.453906 
L 626.009375 53.453906 
" style="fill: none; stroke: #ff0000; stroke-linecap: square"/>
    </g>
    <g id="text_33">
     <!-- poly(degree=32) -->
     <g transform="translate(634.009375 56.953906)scale(0.1 -0.1)">
      <use xlink:href="#DejaVuSans-70"/>
      <use xlink:href="#DejaVuSans-6f" x="63.476562"/>
      <use xlink:href="#DejaVuSans-6c" x="124.658203"/>
      <use xlink:href="#DejaVuSans-79" x="152.441406"/>
      <use xlink:href="#DejaVuSans-28" x="211.621094"/>
      <use xlink:href="#DejaVuSans-64" x="250.634766"/>
      <use xlink:href="#DejaVuSans-65" x="314.111328"/>
      <use xlink:href="#DejaVuSans-67" x="375.634766"/>
      <use xlink:href="#DejaVuSans-72" x="439.111328"/>
      <use xlink:href="#DejaVuSans-65" x="477.974609"/>
      <use xlink:href="#DejaVuSans-65" x="539.498047"/>
      <use xlink:href="#DejaVuSans-3d" x="601.021484"/>
      <use xlink:href="#DejaVuSans-33" x="684.810547"/>
      <use xlink:href="#DejaVuSans-32" x="748.433594"/>
      <use xlink:href="#DejaVuSans-29" x="812.056641"/>
     </g>
    </g>
    <g id="line2d_64">
     <path d="M 606.009375 68.132031 
L 616.009375 68.132031 
L 626.009375 68.132031 
" style="fill: none; stroke: #00ff00; stroke-linecap: square"/>
    </g>
    <g id="text_34">
     <!-- pade(m=8 n=7) -->
     <g transform="translate(634.009375 71.632031)scale(0.1 -0.1)">
      <defs>
       <path id="DejaVuSans-6d" d="M 3328 2828 
Q 3544 3216 3844 3400 
Q 4144 3584 4550 3584 
Q 5097 3584 5394 3201 
Q 5691 2819 5691 2113 
L 5691 0 
L 5113 0 
L 5113 2094 
Q 5113 2597 4934 2840 
Q 4756 3084 4391 3084 
Q 3944 3084 3684 2787 
Q 3425 2491 3425 1978 
L 3425 0 
L 2847 0 
L 2847 2094 
Q 2847 2600 2669 2842 
Q 2491 3084 2119 3084 
Q 1678 3084 1418 2786 
Q 1159 2488 1159 1978 
L 1159 0 
L 581 0 
L 581 3500 
L 1159 3500 
L 1159 2956 
Q 1356 3278 1631 3431 
Q 1906 3584 2284 3584 
Q 2666 3584 2933 3390 
Q 3200 3197 3328 2828 
z
" transform="scale(0.015625)"/>
       <path id="DejaVuSans-20" transform="scale(0.015625)"/>
       <path id="DejaVuSans-6e" d="M 3513 2113 
L 3513 0 
L 2938 0 
L 2938 2094 
Q 2938 2591 2744 2837 
Q 2550 3084 2163 3084 
Q 1697 3084 1428 2787 
Q 1159 2491 1159 1978 
L 1159 0 
L 581 0 
L 581 3500 
L 1159 3500 
L 1159 2956 
Q 1366 3272 1645 3428 
Q 1925 3584 2291 3584 
Q 2894 3584 3203 3211 
Q 3513 2838 3513 2113 
z
" transform="scale(0.015625)"/>
      </defs>
      <use xlink:href="#DejaVuSans-70"/>
      <use xlink:href="#DejaVuSans-61" x="63.476562"/>
      <use xlink:href="#DejaVuSans-64" x="124.755859"/>
      <use xlink:href="#DejaVuSans-65" x="188.232422"/>
      <use xlink:href="#DejaVuSans-28" x="249.755859"/>
      <use xlink:href="#DejaVuSans-6d" x="288.769531"/>
      <use xlink:href="#DejaVuSans-3d" x="386.181641"/>
      <use xlink:href="#DejaVuSans-38" x="469.970703"/>
      <use xlink:href="#DejaVuSans-20" x="533.59375"/>
      <use xlink:href="#DejaVuSans-6e" x="565.380859"/>
      <use xlink:href="#DejaVuSans-3d" x="628.759766"/>
      <use xlink:href="#DejaVuSans-37" x="712.548828"/>
      <use xlink:href="#DejaVuSans-29" x="776.171875"/>
     </g>
    </g>
   </g>
  </g>
 </g>
 <defs>
  <clipPath id="p5c43d7ded5">
   <rect x="58.523438" y="10.999219" width="669.6" height="332.64"/>
  </clipPath>
 </defs>
</svg>
