<?xml version="1.0" encoding="UTF-8" standalone="no"?>
<!DOCTYPE svg PUBLIC "-//W3C//DTD SVG 1.1//EN" "http://www.w3.org/Graphics/SVG/1.1/DTD/svg11.dtd">
<svg xmlns="http://www.w3.org/2000/svg" xmlns:xlink="http://www.w3.org/1999/xlink" version="1.1" width="149.97pt" height="23.74pt" viewBox="0 0 149.97 23.74">
<g enable-background="new">
<path transform="matrix(.00359712,0,0,-.00359712,0,23.74)" d="M 1281.3 3492.22 C 1292.39 3531.03 1292.39 3536.58 1292.39 3555.98 C 1292.39 3605.88 1253.58 3630.83 1212 3630.83 C 1184.27 3630.83 1139.92 3614.19 1114.97 3572.61 C 1109.42 3558.75 1087.25 3472.81 1076.16 3422.91 C 1056.75 3350.83 1037.34 3275.98 1020.72 3201.14 L 895.969 2702.14 C 884.875 2660.55 765.672 2466.5 582.703 2466.5 C 441.313 2466.5 410.828 2588.47 410.828 2691.05 C 410.828 2818.56 457.953 2990.44 552.203 3234.41 C 596.563 3348.06 607.656 3378.56 607.656 3434 C 607.656 3558.75 518.938 3661.33 380.328 3661.33 C 116.969 3661.33 14.3906 3259.34 14.3906 3234.41 C 14.3906 3206.67 42.1094 3206.67 47.6563 3206.67 C 75.3906 3206.67 78.1563 3212.22 92.0156 3256.58 C 166.859 3517.17 277.75 3600.33 372.016 3600.33 C 394.188 3600.33 441.313 3600.33 441.313 3511.63 C 441.313 3442.31 413.594 3370.23 394.188 3317.56 C 283.297 3023.72 233.406 2865.69 233.406 2735.41 C 233.406 2488.67 408.047 2405.5 571.609 2405.5 C 679.734 2405.5 773.984 2452.64 851.609 2530.25 C 815.563 2386.09 782.297 2250.27 671.406 2103.33 C 599.328 2009.08 493.984 1928.69 366.469 1928.69 C 327.656 1928.69 202.906 1937 155.781 2045.11 C 200.141 2045.11 236.172 2045.11 274.984 2078.39 C 302.703 2103.33 330.422 2139.38 330.422 2192.05 C 330.422 2277.98 255.578 2289.08 227.859 2289.08 C 164.094 2289.08 72.6094 2244.72 72.6094 2108.88 C 72.6094 1970.27 194.594 1867.69 366.469 1867.69 C 652 1867.69 937.547 2119.97 1015.17 2433.23 L 1281.3 3492.22 "/>
<path transform="matrix(.00359712,0,0,-.00359712,0,23.74)" d="M 4065.52 3342.52 C 4107.09 3342.52 4159.78 3342.52 4159.78 3397.97 C 4159.78 3453.41 4107.09 3453.41 4068.3 3453.41 L 2407.73 3453.41 C 2368.92 3453.41 2316.25 3453.41 2316.25 3397.97 C 2316.25 3342.52 2368.92 3342.52 2410.5 3342.52 L 4065.52 3342.52 Z M 4068.3 2804.7 C 4107.09 2804.7 4159.78 2804.7 4159.78 2860.16 C 4159.78 2915.59 4107.09 2915.59 4065.52 2915.59 L 2410.5 2915.59 C 2368.92 2915.59 2316.25 2915.59 2316.25 2860.16 C 2316.25 2804.7 2368.92 2804.7 2407.73 2804.7 L 4068.3 2804.7 "/>
<path transform="matrix(.00359712,0,0,-.00359712,0,23.74)" d="M 5541.75 3971.78 C 5519.58 3877.53 5514.03 3858.13 5392.05 3858.13 C 5358.78 3858.13 5328.28 3858.13 5328.28 3805.45 C 5328.28 3783.28 5342.16 3772.19 5364.33 3772.19 C 5439.17 3772.19 5519.58 3780.5 5597.19 3780.5 C 5688.67 3780.5 5782.94 3772.19 5871.64 3772.19 C 5885.5 3772.19 5921.55 3772.19 5921.55 3827.64 C 5921.55 3858.13 5893.83 3858.13 5855.02 3858.13 C 5716.41 3858.13 5716.41 3877.53 5716.41 3902.48 C 5716.41 3935.75 5832.83 4387.63 5852.23 4456.92 C 5888.28 4376.53 5965.91 4279.5 6107.28 4279.5 C 6428.86 4279.5 6775.39 4684.25 6775.39 5091.77 C 6775.39 5352.36 6617.38 5535.33 6406.69 5535.33 C 6268.08 5535.33 6135 5435.52 6043.52 5327.41 C 6015.8 5477.11 5896.59 5535.33 5794.02 5535.33 C 5666.5 5535.33 5613.83 5427.2 5588.88 5377.31 C 5538.98 5283.05 5502.94 5116.72 5502.94 5108.41 C 5502.94 5080.67 5530.66 5080.67 5536.2 5080.67 C 5563.92 5080.67 5566.7 5083.45 5583.33 5144.44 C 5630.47 5341.27 5685.91 5474.33 5785.7 5474.33 C 5832.83 5474.33 5871.64 5452.16 5871.64 5346.81 C 5871.64 5283.05 5863.33 5252.56 5852.23 5205.42 L 5541.75 3971.78 Z M 6029.66 5174.94 C 6049.06 5249.78 6123.92 5327.41 6173.81 5368.98 C 6270.84 5454.92 6351.23 5474.33 6398.38 5474.33 C 6509.25 5474.33 6575.8 5377.31 6575.8 5213.75 C 6575.8 5050.19 6484.31 4731.38 6434.41 4626.03 C 6340.16 4431.98 6207.08 4340.5 6104.52 4340.5 C 5921.55 4340.5 5885.5 4570.59 5885.5 4587.22 C 5885.5 4592.77 5885.5 4598.31 5893.83 4631.58 L 6029.66 5174.94 "/>
<path transform="matrix(.00359712,0,0,-.00359712,0,23.74)" d="M 7810.23 4512.36 C 7810.23 4725.59 7785.03 4878.72 7695.86 5014.41 C 7635.77 5103.58 7515.59 5181.13 7360.52 5181.13 C 6910.8 5181.13 6910.8 4651.92 6910.8 4512.36 C 6910.8 4372.8 6910.8 3855.23 7360.52 3855.23 C 7810.23 3855.23 7810.23 4372.8 7810.23 4512.36 Z M 7360.52 3909.5 C 7271.34 3909.5 7153.11 3961.84 7114.33 4120.8 C 7087.2 4235.17 7087.2 4394.11 7087.2 4537.56 C 7087.2 4679.06 7087.2 4826.39 7116.27 4933 C 7156.98 5086.14 7281.05 5126.84 7360.52 5126.84 C 7465.19 5126.84 7565.98 5062.88 7600.88 4950.45 C 7631.89 4845.77 7633.83 4706.2 7633.83 4537.56 C 7633.83 4394.11 7633.83 4250.67 7608.64 4128.55 C 7569.86 3952.16 7438.05 3909.5 7360.52 3909.5 "/>
<path transform="matrix(.00359712,0,0,-.00359712,0,23.74)" d="M 9801.84 4947.61 L 10575.3 4947.61 C 10614.1 4947.61 10666.8 4947.61 10666.8 5003.06 C 10666.8 5058.5 10614.1 5058.5 10575.3 5058.5 L 9801.84 5058.5 L 9801.84 5834.72 C 9801.84 5873.53 9801.84 5926.2 9746.39 5926.2 C 9690.95 5926.2 9690.95 5873.53 9690.95 5834.72 L 9690.95 5058.5 L 8914.73 5058.5 C 8875.92 5058.5 8823.25 5058.5 8823.25 5003.06 C 8823.25 4947.61 8875.92 4947.61 8914.73 4947.61 L 9690.95 4947.61 L 9690.95 4171.39 C 9690.95 4132.58 9690.95 4079.91 9746.39 4079.91 C 9801.84 4079.91 9801.84 4132.58 9801.84 4171.39 L 9801.84 4947.61 "/>
<path transform="matrix(.00359712,0,0,-.00359712,0,23.74)" d="M 11561.8 3971.78 C 11539.6 3877.53 11534 3858.13 11412 3858.13 C 11378.8 3858.13 11348.3 3858.13 11348.3 3805.45 C 11348.3 3783.28 11362.2 3772.19 11384.3 3772.19 C 11459.2 3772.19 11539.6 3780.5 11617.2 3780.5 C 11708.7 3780.5 11802.9 3772.19 11891.6 3772.19 C 11905.5 3772.19 11941.5 3772.19 11941.5 3827.64 C 11941.5 3858.13 11913.8 3858.13 11875 3858.13 C 11736.4 3858.13 11736.4 3877.53 11736.4 3902.48 C 11736.4 3935.75 11852.8 4387.63 11872.2 4456.92 C 11908.3 4376.53 11985.9 4279.5 12127.3 4279.5 C 12448.9 4279.5 12795.4 4684.25 12795.4 5091.77 C 12795.4 5352.36 12637.4 5535.33 12426.7 5535.33 C 12288.1 5535.33 12155 5435.52 12063.5 5327.41 C 12035.8 5477.11 11916.6 5535.33 11814 5535.33 C 11686.5 5535.33 11633.8 5427.2 11608.9 5377.31 C 11559 5283.05 11522.9 5116.72 11522.9 5108.41 C 11522.9 5080.67 11550.7 5080.67 11556.2 5080.67 C 11583.9 5080.67 11586.7 5083.45 11603.3 5144.44 C 11650.5 5341.27 11705.9 5474.33 11805.7 5474.33 C 11852.8 5474.33 11891.6 5452.16 11891.6 5346.81 C 11891.6 5283.05 11883.3 5252.56 11872.2 5205.42 L 11561.8 3971.78 Z M 12049.7 5174.94 C 12069.1 5249.78 12143.9 5327.41 12193.8 5368.98 C 12290.8 5454.92 12371.2 5474.33 12418.4 5474.33 C 12529.3 5474.33 12595.8 5377.31 12595.8 5213.75 C 12595.8 5050.19 12504.3 4731.38 12454.4 4626.03 C 12360.2 4431.98 12227.1 4340.5 12124.5 4340.5 C 11941.5 4340.5 11905.5 4570.59 11905.5 4587.22 C 11905.5 4592.77 11905.5 4598.31 11913.8 4631.58 L 12049.7 5174.94 "/>
<path transform="matrix(.00359712,0,0,-.00359712,0,23.74)" d="M 13480.4 5126.84 C 13480.4 5179.19 13476.5 5181.13 13422.2 5181.13 C 13298.2 5059 13121.8 5057.06 13042.3 5057.06 L 13042.3 4987.28 C 13088.8 4987.28 13216.8 4987.28 13323.4 5041.55 L 13323.4 4052.95 C 13323.4 3988.98 13323.4 3963.78 13129.5 3963.78 L 13055.9 3963.78 L 13055.9 3894 C 13090.8 3895.94 13329.2 3901.75 13400.9 3901.75 C 13461 3901.75 13705.2 3895.94 13747.9 3894 L 13747.9 3963.78 L 13674.2 3963.78 C 13480.4 3963.78 13480.4 3988.98 13480.4 4052.95 L 13480.4 5126.84 "/>
<path transform="matrix(.00359712,0,0,-.00359712,0,23.74)" d="M 14998.9 5147.22 C 15015.6 5219.3 15079.3 5474.33 15273.4 5474.33 C 15287.2 5474.33 15353.8 5474.33 15412 5438.3 C 15334.4 5424.44 15278.9 5355.13 15278.9 5288.59 C 15278.9 5244.23 15309.4 5191.56 15384.3 5191.56 C 15445.3 5191.56 15534 5241.47 15534 5352.36 C 15534 5496.52 15370.4 5535.33 15276.1 5535.33 C 15115.4 5535.33 15018.3 5388.39 14985.1 5324.64 C 14915.8 5507.59 14766.1 5535.33 14685.7 5535.33 C 14397.3 5535.33 14239.3 5177.7 14239.3 5108.41 C 14239.3 5080.67 14267.1 5080.67 14272.6 5080.67 C 14294.8 5080.67 14303.1 5086.22 14308.6 5111.17 C 14402.9 5405.03 14585.9 5474.33 14680.1 5474.33 C 14732.8 5474.33 14829.8 5449.39 14829.8 5288.59 C 14829.8 5202.66 14782.7 5016.92 14680.1 4628.81 C 14635.8 4456.92 14538.7 4340.5 14416.8 4340.5 C 14400.1 4340.5 14336.4 4340.5 14278.1 4376.53 C 14347.5 4390.39 14408.4 4448.61 14408.4 4526.23 C 14408.4 4601.08 14347.5 4623.27 14305.9 4623.27 C 14222.7 4623.27 14153.4 4551.19 14153.4 4462.47 C 14153.4 4334.95 14292 4279.5 14414 4279.5 C 14597 4279.5 14696.8 4473.56 14705.1 4490.19 C 14738.3 4387.63 14838.1 4279.5 15004.5 4279.5 C 15290 4279.5 15448 4637.13 15448 4706.42 C 15448 4734.16 15423.1 4734.16 15414.8 4734.16 C 15389.8 4734.16 15384.3 4723.06 15378.7 4703.66 C 15287.2 4407.03 15098.7 4340.5 15010 4340.5 C 14901.9 4340.5 14857.5 4429.2 14857.5 4523.47 C 14857.5 4584.45 14874.2 4645.44 14904.7 4767.42 L 14998.9 5147.22 "/>
<path transform="matrix(.00359712,0,0,-.00359712,0,23.74)" d="M 17405.8 4947.61 L 18179.3 4947.61 C 18218.1 4947.61 18270.8 4947.61 18270.8 5003.06 C 18270.8 5058.5 18218.1 5058.5 18179.3 5058.5 L 17405.8 5058.5 L 17405.8 5834.72 C 17405.8 5873.53 17405.8 5926.2 17350.4 5926.2 C 17295 5926.2 17295 5873.53 17295 5834.72 L 17295 5058.5 L 16518.7 5058.5 C 16479.9 5058.5 16427.3 5058.5 16427.3 5003.06 C 16427.3 4947.61 16479.9 4947.61 16518.7 4947.61 L 17295 4947.61 L 17295 4171.39 C 17295 4132.58 17295 4079.91 17350.4 4079.91 C 17405.8 4079.91 17405.8 4132.58 17405.8 4171.39 L 17405.8 4947.61 "/>
<path transform="matrix(.00359712,0,0,-.00359712,0,23.74)" d="M 19165.8 3971.78 C 19143.6 3877.53 19138 3858.13 19016 3858.13 C 18982.8 3858.13 18952.3 3858.13 18952.3 3805.45 C 18952.3 3783.28 18966.2 3772.19 18988.3 3772.19 C 19063.2 3772.19 19143.6 3780.5 19221.2 3780.5 C 19312.7 3780.5 19406.9 3772.19 19495.6 3772.19 C 19509.5 3772.19 19545.5 3772.19 19545.5 3827.64 C 19545.5 3858.13 19517.8 3858.13 19479 3858.13 C 19340.4 3858.13 19340.4 3877.53 19340.4 3902.48 C 19340.4 3935.75 19456.8 4387.63 19476.2 4456.92 C 19512.3 4376.53 19589.9 4279.5 19731.3 4279.5 C 20052.9 4279.5 20399.4 4684.25 20399.4 5091.77 C 20399.4 5352.36 20241.4 5535.33 20030.7 5535.33 C 19892.1 5535.33 19759 5435.52 19667.5 5327.41 C 19639.8 5477.11 19520.6 5535.33 19418 5535.33 C 19290.5 5535.33 19237.8 5427.2 19212.9 5377.31 C 19163 5283.05 19126.9 5116.72 19126.9 5108.41 C 19126.9 5080.67 19154.7 5080.67 19160.2 5080.67 C 19187.9 5080.67 19190.7 5083.45 19207.3 5144.44 C 19254.5 5341.27 19309.9 5474.33 19409.7 5474.33 C 19456.8 5474.33 19495.6 5452.16 19495.6 5346.81 C 19495.6 5283.05 19487.3 5252.56 19476.2 5205.42 L 19165.8 3971.78 Z M 19653.7 5174.94 C 19673.1 5249.78 19747.9 5327.41 19797.8 5368.98 C 19894.8 5454.92 19975.2 5474.33 20022.4 5474.33 C 20133.3 5474.33 20199.8 5377.31 20199.8 5213.75 C 20199.8 5050.19 20108.3 4731.38 20058.4 4626.03 C 19964.2 4431.98 19831.1 4340.5 19728.5 4340.5 C 19545.5 4340.5 19509.5 4570.59 19509.5 4587.22 C 19509.5 4592.77 19509.5 4598.31 19517.8 4631.58 L 19653.7 5174.94 "/>
<path transform="matrix(.00359712,0,0,-.00359712,0,23.74)" d="M 21413.9 4246.8 L 21348 4246.8 C 21342.2 4204.16 21322.8 4089.78 21297.6 4070.39 C 21282.1 4058.77 21132.8 4058.77 21105.7 4058.77 L 20749 4058.77 C 20952.6 4239.05 21020.4 4293.31 21136.7 4384.42 C 21280.2 4498.8 21413.9 4618.97 21413.9 4803.13 C 21413.9 5037.67 21208.4 5181.13 20960.3 5181.13 C 20720 5181.13 20557.1 5012.47 20557.1 4834.14 C 20557.1 4735.28 20640.5 4725.59 20659.9 4725.59 C 20706.4 4725.59 20762.6 4758.55 20762.6 4828.33 C 20762.6 4863.22 20749 4931.06 20648.2 4931.06 C 20708.3 5068.69 20840.1 5111.33 20931.2 5111.33 C 21125.1 5111.33 21225.9 4960.14 21225.9 4803.13 C 21225.9 4634.48 21105.7 4500.73 21043.7 4430.95 L 20576.5 3969.59 C 20557.1 3952.16 20557.1 3948.28 20557.1 3894 L 21355.8 3894 L 21413.9 4246.8 "/>
<path transform="matrix(.00359712,0,0,-.00359712,0,23.74)" d="M 22602.9 5147.22 C 22619.6 5219.3 22683.3 5474.33 22877.4 5474.33 C 22891.2 5474.33 22957.8 5474.33 23016 5438.3 C 22938.4 5424.44 22882.9 5355.13 22882.9 5288.59 C 22882.9 5244.23 22913.4 5191.56 22988.3 5191.56 C 23049.3 5191.56 23138 5241.47 23138 5352.36 C 23138 5496.52 22974.4 5535.33 22880.1 5535.33 C 22719.4 5535.33 22622.3 5388.39 22589.1 5324.64 C 22519.8 5507.59 22370.1 5535.33 22289.7 5535.33 C 22001.3 5535.33 21843.3 5177.7 21843.3 5108.41 C 21843.3 5080.67 21871.1 5080.67 21876.6 5080.67 C 21898.8 5080.67 21907.1 5086.22 21912.6 5111.17 C 22006.9 5405.03 22189.9 5474.33 22284.1 5474.33 C 22336.8 5474.33 22433.8 5449.39 22433.8 5288.59 C 22433.8 5202.66 22386.7 5016.92 22284.1 4628.81 C 22239.8 4456.92 22142.7 4340.5 22020.8 4340.5 C 22004.1 4340.5 21940.4 4340.5 21882.1 4376.53 C 21951.5 4390.39 22012.4 4448.61 22012.4 4526.23 C 22012.4 4601.08 21951.5 4623.27 21909.9 4623.27 C 21826.7 4623.27 21757.4 4551.19 21757.4 4462.47 C 21757.4 4334.95 21896 4279.5 22018 4279.5 C 22201 4279.5 22300.8 4473.56 22309.1 4490.19 C 22342.3 4387.63 22442.1 4279.5 22608.5 4279.5 C 22894 4279.5 23052 4637.13 23052 4706.42 C 23052 4734.16 23027.1 4734.16 23018.8 4734.16 C 22993.8 4734.16 22988.3 4723.06 22982.7 4703.66 C 22891.2 4407.03 22702.7 4340.5 22614 4340.5 C 22505.9 4340.5 22461.5 4429.2 22461.5 4523.47 C 22461.5 4584.45 22478.2 4645.44 22508.7 4767.42 L 22602.9 5147.22 "/>
<path transform="matrix(.00359712,0,0,-.00359712,0,23.74)" d="M 24238.9 5667.8 L 24173 5667.8 C 24167.2 5625.16 24147.8 5510.78 24122.6 5491.39 C 24107.1 5479.77 23957.8 5479.77 23930.7 5479.77 L 23574 5479.77 C 23777.6 5660.05 23845.4 5714.31 23961.7 5805.42 C 24105.2 5919.8 24238.9 6039.97 24238.9 6224.13 C 24238.9 6458.67 24033.4 6602.13 23785.3 6602.13 C 23545 6602.13 23382.1 6433.47 23382.1 6255.14 C 23382.1 6156.28 23465.5 6146.59 23484.9 6146.59 C 23531.4 6146.59 23587.6 6179.55 23587.6 6249.33 C 23587.6 6284.22 23574 6352.06 23473.2 6352.06 C 23533.3 6489.69 23665.1 6532.33 23756.2 6532.33 C 23950.1 6532.33 24050.9 6381.14 24050.9 6224.13 C 24050.9 6055.48 23930.7 5921.73 23868.7 5851.95 L 23401.5 5390.59 C 23382.1 5373.16 23382.1 5369.28 23382.1 5315 L 24180.8 5315 L 24238.9 5667.8 "/>
<path transform="matrix(.00359712,0,0,-.00359712,0,23.74)" d="M 26251.8 4947.61 L 27025.3 4947.61 C 27064.1 4947.61 27116.8 4947.61 27116.8 5003.06 C 27116.8 5058.5 27064.1 5058.5 27025.3 5058.5 L 26251.8 5058.5 L 26251.8 5834.72 C 26251.8 5873.53 26251.8 5926.2 26196.4 5926.2 C 26141 5926.2 26141 5873.53 26141 5834.72 L 26141 5058.5 L 25364.7 5058.5 C 25325.9 5058.5 25273.3 5058.5 25273.3 5003.06 C 25273.3 4947.61 25325.9 4947.61 25364.7 4947.61 L 26141 4947.61 L 26141 4171.39 C 26141 4132.58 26141 4079.91 26196.4 4079.91 C 26251.8 4079.91 26251.8 4132.58 26251.8 4171.39 L 26251.8 4947.61 "/>
<path transform="matrix(.00359712,0,0,-.00359712,0,23.74)" d="M 28420.3 5003.06 C 28420.3 5083.45 28353.7 5149.98 28273.3 5149.98 C 28192.9 5149.98 28126.4 5083.45 28126.4 5003.06 C 28126.4 4922.66 28192.9 4856.13 28273.3 4856.13 C 28353.7 4856.13 28420.3 4922.66 28420.3 5003.06 "/>
<path transform="matrix(.00359712,0,0,-.00359712,0,23.74)" d="M 29649.3 5003.06 C 29649.3 5083.45 29582.7 5149.98 29502.3 5149.98 C 29421.9 5149.98 29355.4 5083.45 29355.4 5003.06 C 29355.4 4922.66 29421.9 4856.13 29502.3 4856.13 C 29582.7 4856.13 29649.3 4922.66 29649.3 5003.06 "/>
<path transform="matrix(.00359712,0,0,-.00359712,0,23.74)" d="M 30881.3 5003.06 C 30881.3 5083.45 30814.7 5149.98 30734.3 5149.98 C 30653.9 5149.98 30587.4 5083.45 30587.4 5003.06 C 30587.4 4922.66 30653.9 4856.13 30734.3 4856.13 C 30814.7 4856.13 30881.3 4922.66 30881.3 5003.06 "/>
<path transform="matrix(.00359712,0,0,-.00359712,0,23.74)" d="M 32868.8 4947.61 L 33642.3 4947.61 C 33681.1 4947.61 33733.8 4947.61 33733.8 5003.06 C 33733.8 5058.5 33681.1 5058.5 33642.3 5058.5 L 32868.8 5058.5 L 32868.8 5834.72 C 32868.8 5873.53 32868.8 5926.2 32813.4 5926.2 C 32758 5926.2 32758 5873.53 32758 5834.72 L 32758 5058.5 L 31981.7 5058.5 C 31942.9 5058.5 31890.3 5058.5 31890.3 5003.06 C 31890.3 4947.61 31942.9 4947.61 31981.7 4947.61 L 32758 4947.61 L 32758 4171.39 C 32758 4132.58 32758 4079.91 32813.4 4079.91 C 32868.8 4079.91 32868.8 4132.58 32868.8 4171.39 L 32868.8 4947.61 "/>
<path transform="matrix(.00359712,0,0,-.00359712,0,23.74)" d="M 34628.8 3971.78 C 34606.6 3877.53 34601 3858.13 34479 3858.13 C 34445.8 3858.13 34415.3 3858.13 34415.3 3805.45 C 34415.3 3783.28 34429.2 3772.19 34451.3 3772.19 C 34526.2 3772.19 34606.6 3780.5 34684.2 3780.5 C 34775.7 3780.5 34869.9 3772.19 34958.6 3772.19 C 34972.5 3772.19 35008.5 3772.19 35008.5 3827.64 C 35008.5 3858.13 34980.8 3858.13 34942 3858.13 C 34803.4 3858.13 34803.4 3877.53 34803.4 3902.48 C 34803.4 3935.75 34919.8 4387.63 34939.2 4456.92 C 34975.3 4376.53 35052.9 4279.5 35194.3 4279.5 C 35515.9 4279.5 35862.4 4684.25 35862.4 5091.77 C 35862.4 5352.36 35704.4 5535.33 35493.7 5535.33 C 35355.1 5535.33 35222 5435.52 35130.5 5327.41 C 35102.8 5477.11 34983.6 5535.33 34881 5535.33 C 34753.5 5535.33 34700.8 5427.2 34675.9 5377.31 C 34626 5283.05 34589.9 5116.72 34589.9 5108.41 C 34589.9 5080.67 34617.7 5080.67 34623.2 5080.67 C 34650.9 5080.67 34653.7 5083.45 34670.3 5144.44 C 34717.5 5341.27 34772.9 5474.33 34872.7 5474.33 C 34919.8 5474.33 34958.6 5452.16 34958.6 5346.81 C 34958.6 5283.05 34950.3 5252.56 34939.2 5205.42 L 34628.8 3971.78 Z M 35116.7 5174.94 C 35136.1 5249.78 35210.9 5327.41 35260.8 5368.98 C 35357.8 5454.92 35438.2 5474.33 35485.4 5474.33 C 35596.3 5474.33 35662.8 5377.31 35662.8 5213.75 C 35662.8 5050.19 35571.3 4731.38 35521.4 4626.03 C 35427.2 4431.98 35294.1 4340.5 35191.5 4340.5 C 35008.5 4340.5 34972.5 4570.59 34972.5 4587.22 C 34972.5 4592.77 34972.5 4598.31 34980.8 4631.58 L 35116.7 5174.94 "/>
<path transform="matrix(.00359712,0,0,-.00359712,0,23.74)" d="M 36739.3 4051.02 C 36729.6 4012.25 36712.1 3946.34 36712.1 3936.64 C 36712.1 3894 36747 3874.61 36778 3874.61 C 36812.9 3874.61 36844 3899.81 36853.6 3917.27 C 36863.3 3934.7 36878.8 3996.73 36888.5 4037.44 C 36898.2 4074.28 36919.5 4163.44 36931.2 4211.91 C 36942.8 4254.55 36954.5 4297.19 36964.1 4341.78 C 36985.5 4425.13 36985.5 4429 37024.2 4489.09 C 37086.3 4584.08 37183.2 4694.58 37334.4 4694.58 C 37442.9 4694.58 37448.8 4605.41 37448.8 4558.88 C 37448.8 4442.58 37365.4 4227.41 37334.4 4146 C 37313.1 4091.72 37305.3 4074.28 37305.3 4041.33 C 37305.3 3938.58 37390.6 3874.61 37489.5 3874.61 C 37683.3 3874.61 37768.6 4142.13 37768.6 4171.2 C 37768.6 4196.39 37743.4 4196.39 37737.6 4196.39 C 37710.4 4196.39 37708.5 4184.77 37700.7 4163.44 C 37656.2 4008.38 37572.8 3928.89 37495.3 3928.89 C 37454.6 3928.89 37446.8 3956.03 37446.8 3996.73 C 37446.8 4041.33 37456.5 4066.52 37491.4 4153.75 C 37514.7 4213.84 37594.1 4419.31 37594.1 4527.88 C 37594.1 4558.88 37594.1 4640.3 37522.4 4696.52 C 37489.5 4721.7 37433.2 4748.84 37342.1 4748.84 C 37167.7 4748.84 37061.1 4634.48 36999 4553.06 C 36983.5 4717.83 36845.9 4748.84 36747 4748.84 C 36586.1 4748.84 36477.6 4649.98 36419.4 4572.45 C 36405.9 4706.2 36291.5 4748.84 36212 4748.84 C 36128.7 4748.84 36084.1 4688.75 36058.9 4644.17 C 36016.3 4572.45 35989.1 4461.95 35989.1 4452.27 C 35989.1 4427.06 36016.3 4427.06 36022.1 4427.06 C 36049.2 4427.06 36051.1 4432.89 36064.7 4485.22 C 36093.8 4599.59 36130.6 4694.58 36206.2 4694.58 C 36256.6 4694.58 36270.2 4651.92 36270.2 4599.59 C 36270.2 4562.77 36252.7 4491.03 36239.2 4438.7 C 36225.6 4386.36 36206.2 4306.89 36196.5 4264.23 L 36134.5 4016.13 C 36126.7 3990.92 36115.1 3942.45 36115.1 3936.64 C 36115.1 3894 36150 3874.61 36181 3874.61 C 36215.9 3874.61 36246.9 3899.81 36256.6 3917.27 C 36266.3 3934.7 36281.8 3996.73 36291.5 4037.44 C 36301.2 4074.28 36322.5 4163.44 36334.1 4211.91 C 36345.8 4254.55 36357.4 4297.19 36367.1 4341.78 C 36388.4 4421.25 36392.3 4436.77 36448.5 4516.23 C 36502.8 4593.78 36593.9 4694.58 36739.3 4694.58 C 36851.7 4694.58 36853.6 4595.72 36853.6 4558.88 C 36853.6 4510.42 36847.8 4485.22 36820.7 4376.67 L 36739.3 4051.02 "/>
<path transform="matrix(.00359712,0,0,-.00359712,0,23.74)" d="M 38926.9 5147.22 C 38943.6 5219.3 39007.3 5474.33 39201.4 5474.33 C 39215.2 5474.33 39281.8 5474.33 39340 5438.3 C 39262.4 5424.44 39206.9 5355.13 39206.9 5288.59 C 39206.9 5244.23 39237.4 5191.56 39312.3 5191.56 C 39373.3 5191.56 39462 5241.47 39462 5352.36 C 39462 5496.52 39298.4 5535.33 39204.1 5535.33 C 39043.4 5535.33 38946.3 5388.39 38913.1 5324.64 C 38843.8 5507.59 38694.1 5535.33 38613.7 5535.33 C 38325.3 5535.33 38167.3 5177.7 38167.3 5108.41 C 38167.3 5080.67 38195.1 5080.67 38200.6 5080.67 C 38222.8 5080.67 38231.1 5086.22 38236.6 5111.17 C 38330.9 5405.03 38513.9 5474.33 38608.1 5474.33 C 38660.8 5474.33 38757.8 5449.39 38757.8 5288.59 C 38757.8 5202.66 38710.7 5016.92 38608.1 4628.81 C 38563.8 4456.92 38466.7 4340.5 38344.8 4340.5 C 38328.1 4340.5 38264.4 4340.5 38206.1 4376.53 C 38275.5 4390.39 38336.4 4448.61 38336.4 4526.23 C 38336.4 4601.08 38275.5 4623.27 38233.9 4623.27 C 38150.7 4623.27 38081.4 4551.19 38081.4 4462.47 C 38081.4 4334.95 38220 4279.5 38342 4279.5 C 38525 4279.5 38624.8 4473.56 38633.1 4490.19 C 38666.3 4387.63 38766.1 4279.5 38932.5 4279.5 C 39218 4279.5 39376 4637.13 39376 4706.42 C 39376 4734.16 39351.1 4734.16 39342.8 4734.16 C 39317.8 4734.16 39312.3 4723.06 39306.7 4703.66 C 39215.2 4407.03 39026.7 4340.5 38938 4340.5 C 38829.9 4340.5 38785.5 4429.2 38785.5 4523.47 C 38785.5 4584.45 38802.2 4645.44 38832.7 4767.42 L 38926.9 5147.22 "/>
<path transform="matrix(.00359712,0,0,-.00359712,0,23.74)" d="M 40425.3 5472.02 C 40415.6 5433.25 40398.1 5367.34 40398.1 5357.64 C 40398.1 5315 40433 5295.61 40464 5295.61 C 40498.9 5295.61 40530 5320.81 40539.6 5338.27 C 40549.3 5355.7 40564.8 5417.73 40574.5 5458.44 C 40584.2 5495.28 40605.5 5584.44 40617.2 5632.91 C 40628.8 5675.55 40640.5 5718.19 40650.1 5762.78 C 40671.5 5846.13 40671.5 5850 40710.2 5910.09 C 40772.3 6005.08 40869.2 6115.58 41020.4 6115.58 C 41128.9 6115.58 41134.8 6026.41 41134.8 5979.88 C 41134.8 5863.58 41051.4 5648.41 41020.4 5567 C 40999.1 5512.72 40991.3 5495.28 40991.3 5462.33 C 40991.3 5359.58 41076.6 5295.61 41175.5 5295.61 C 41369.3 5295.61 41454.6 5563.13 41454.6 5592.2 C 41454.6 5617.39 41429.4 5617.39 41423.6 5617.39 C 41396.4 5617.39 41394.5 5605.77 41386.7 5584.44 C 41342.2 5429.38 41258.8 5349.89 41181.3 5349.89 C 41140.6 5349.89 41132.8 5377.03 41132.8 5417.73 C 41132.8 5462.33 41142.5 5487.52 41177.4 5574.75 C 41200.7 5634.84 41280.1 5840.31 41280.1 5948.88 C 41280.1 5979.88 41280.1 6061.3 41208.4 6117.52 C 41175.5 6142.7 41119.2 6169.84 41028.1 6169.84 C 40853.7 6169.84 40747.1 6055.48 40685 5974.06 C 40669.5 6138.83 40531.9 6169.84 40433 6169.84 C 40272.1 6169.84 40163.6 6070.98 40105.4 5993.45 C 40091.9 6127.2 39977.5 6169.84 39898 6169.84 C 39814.7 6169.84 39770.1 6109.75 39744.9 6065.17 C 39702.3 5993.45 39675.1 5882.95 39675.1 5873.27 C 39675.1 5848.06 39702.3 5848.06 39708.1 5848.06 C 39735.2 5848.06 39737.1 5853.89 39750.7 5906.22 C 39779.8 6020.59 39816.6 6115.58 39892.2 6115.58 C 39942.6 6115.58 39956.2 6072.92 39956.2 6020.59 C 39956.2 5983.77 39938.7 5912.03 39925.2 5859.7 C 39911.6 5807.36 39892.2 5727.89 39882.5 5685.23 L 39820.5 5437.13 C 39812.7 5411.92 39801.1 5363.45 39801.1 5357.64 C 39801.1 5315 39836 5295.61 39867 5295.61 C 39901.9 5295.61 39932.9 5320.81 39942.6 5338.27 C 39952.3 5355.7 39967.8 5417.73 39977.5 5458.44 C 39987.2 5495.28 40008.5 5584.44 40020.1 5632.91 C 40031.8 5675.55 40043.4 5718.19 40053.1 5762.78 C 40074.4 5842.25 40078.3 5857.77 40134.5 5937.23 C 40188.8 6014.78 40279.9 6115.58 40425.3 6115.58 C 40537.7 6115.58 40539.6 6016.72 40539.6 5979.88 C 40539.6 5931.42 40533.8 5906.22 40506.7 5797.67 L 40425.3 5472.02 "/>
<path transform="matrix(.00359712,0,0,-.00359712,0,23.74)" stroke-width="110.783" stroke-linecap="butt" stroke-miterlimit="10" stroke-linejoin="miter" fill="none" stroke="#000000" d="M 5416.55 3128.61 L 41688 3128.61 "/>
<path transform="matrix(.00359712,0,0,-.00359712,0,23.74)" d="M 7689.03 2311.22 C 7689.03 2377.75 7689.03 2383.3 7625.27 2383.3 C 7453.39 2205.88 7209.44 2205.88 7120.73 2205.88 L 7120.73 2119.94 C 7176.17 2119.94 7339.73 2119.94 7483.89 2192.02 L 7483.89 756 C 7483.89 656.203 7475.58 622.938 7226.08 622.938 L 7137.36 622.938 L 7137.36 537 C 7234.39 545.313 7475.58 545.313 7586.47 545.313 C 7697.34 545.313 7938.53 545.313 8035.56 537 L 8035.56 622.938 L 7946.84 622.938 C 7697.34 622.938 7689.03 653.438 7689.03 756 L 7689.03 2311.22 "/>
<path transform="matrix(.00359712,0,0,-.00359712,0,23.74)" d="M 10006.8 1174.61 L 10780.3 1174.61 C 10819.1 1174.61 10871.8 1174.61 10871.8 1230.06 C 10871.8 1285.5 10819.1 1285.5 10780.3 1285.5 L 10006.8 1285.5 L 10006.8 2061.72 C 10006.8 2100.53 10006.8 2153.2 9951.39 2153.2 C 9895.95 2153.2 9895.95 2100.53 9895.95 2061.72 L 9895.95 1285.5 L 9119.73 1285.5 C 9080.92 1285.5 9028.25 1285.5 9028.25 1230.06 C 9028.25 1174.61 9080.92 1174.61 9119.73 1174.61 L 9895.95 1174.61 L 9895.95 398.391 C 9895.95 359.578 9895.95 306.906 9951.39 306.906 C 10006.8 306.906 10006.8 359.578 10006.8 398.391 L 10006.8 1174.61 "/>
<path transform="matrix(.00359712,0,0,-.00359712,0,23.74)" d="M 12897 1731.83 C 12897 1742.92 12888.7 1759.55 12869.3 1759.55 C 12838.8 1759.55 12727.9 1648.66 12680.8 1568.27 C 12619.8 1717.97 12511.7 1762.33 12423 1762.33 C 12095.9 1762.33 11754.9 1352.03 11754.9 950.063 C 11754.9 678.391 11918.5 506.5 12120.8 506.5 C 12240 506.5 12348.1 573.031 12447.9 672.844 C 12423 575.813 12331.5 201.563 12323.2 176.609 C 12301 98.9844 12278.8 87.9063 12123.6 85.125 C 12087.6 85.125 12059.8 85.125 12059.8 29.6875 C 12059.8 26.9063 12059.8 -.8125 12095.9 -.8125 C 12184.6 -.8125 12281.6 7.5 12373.1 7.5 C 12467.3 7.5 12567.2 -.8125 12658.6 -.8125 C 12672.5 -.8125 12708.5 -.8125 12708.5 54.6406 C 12708.5 85.125 12680.8 85.125 12636.5 85.125 C 12503.4 85.125 12503.4 104.531 12503.4 129.484 C 12503.4 148.891 12508.9 165.516 12514.5 190.469 L 12897 1731.83 Z M 12129.1 567.5 C 11962.8 567.5 11951.7 780.953 11951.7 828.078 C 11951.7 961.156 12032.1 1263.33 12079.2 1379.75 C 12165.2 1584.91 12309.3 1701.33 12423 1701.33 C 12603.2 1701.33 12642 1476.78 12642 1457.38 C 12642 1440.75 12489.5 833.625 12481.2 822.547 C 12439.6 744.922 12284.4 567.5 12129.1 567.5 "/>
<path transform="matrix(.00359712,0,0,-.00359712,0,23.74)" d="M 13529.4 1353.84 C 13529.4 1406.19 13525.5 1408.13 13471.2 1408.13 C 13347.2 1286 13170.8 1284.06 13091.3 1284.06 L 13091.3 1214.28 C 13137.8 1214.28 13265.8 1214.28 13372.4 1268.55 L 13372.4 279.953 C 13372.4 215.984 13372.4 190.781 13178.5 190.781 L 13104.9 190.781 L 13104.9 121 C 13139.8 122.938 13378.2 128.75 13449.9 128.75 C 13510 128.75 13754.2 122.938 13796.9 121 L 13796.9 190.781 L 13723.2 190.781 C 13529.4 190.781 13529.4 215.984 13529.4 279.953 L 13529.4 1353.84 "/>
<path transform="matrix(.00359712,0,0,-.00359712,0,23.74)" d="M 15048.9 1374.22 C 15065.6 1446.3 15129.3 1701.33 15323.4 1701.33 C 15337.2 1701.33 15403.8 1701.33 15462 1665.3 C 15384.4 1651.44 15328.9 1582.13 15328.9 1515.59 C 15328.9 1471.23 15359.4 1418.56 15434.3 1418.56 C 15495.3 1418.56 15584 1468.47 15584 1579.36 C 15584 1723.52 15420.4 1762.33 15326.1 1762.33 C 15165.4 1762.33 15068.3 1615.39 15035.1 1551.64 C 14965.8 1734.59 14816.1 1762.33 14735.7 1762.33 C 14447.3 1762.33 14289.3 1404.7 14289.3 1335.41 C 14289.3 1307.67 14317.1 1307.67 14322.6 1307.67 C 14344.8 1307.67 14353.1 1313.22 14358.6 1338.17 C 14452.9 1632.03 14635.9 1701.33 14730.1 1701.33 C 14782.8 1701.33 14879.8 1676.39 14879.8 1515.59 C 14879.8 1429.66 14832.7 1243.92 14730.1 855.813 C 14685.8 683.922 14588.7 567.5 14466.8 567.5 C 14450.1 567.5 14386.4 567.5 14328.1 603.531 C 14397.5 617.391 14458.4 675.609 14458.4 753.234 C 14458.4 828.078 14397.5 850.266 14355.9 850.266 C 14272.7 850.266 14203.4 778.188 14203.4 689.469 C 14203.4 561.953 14342 506.5 14464 506.5 C 14647 506.5 14746.8 700.563 14755.1 717.188 C 14788.3 614.625 14888.1 506.5 15054.5 506.5 C 15340 506.5 15498 864.125 15498 933.422 C 15498 961.156 15473.1 961.156 15464.8 961.156 C 15439.8 961.156 15434.3 950.063 15428.7 930.656 C 15337.2 634.031 15148.7 567.5 15060 567.5 C 14951.9 567.5 14907.5 656.203 14907.5 750.469 C 14907.5 811.453 14924.2 872.438 14954.7 994.422 L 15048.9 1374.22 "/>
<path transform="matrix(.00359712,0,0,-.00359712,0,23.74)" d="M 17454.8 1174.61 L 18228.3 1174.61 C 18267.1 1174.61 18319.8 1174.61 18319.8 1230.06 C 18319.8 1285.5 18267.1 1285.5 18228.3 1285.5 L 17454.8 1285.5 L 17454.8 2061.72 C 17454.8 2100.53 17454.8 2153.2 17399.4 2153.2 C 17344 2153.2 17344 2100.53 17344 2061.72 L 17344 1285.5 L 16567.7 1285.5 C 16528.9 1285.5 16476.3 1285.5 16476.3 1230.06 C 16476.3 1174.61 16528.9 1174.61 16567.7 1174.61 L 17344 1174.61 L 17344 398.391 C 17344 359.578 17344 306.906 17399.4 306.906 C 17454.8 306.906 17454.8 359.578 17454.8 398.391 L 17454.8 1174.61 "/>
<path transform="matrix(.00359712,0,0,-.00359712,0,23.74)" d="M 20344 1731.83 C 20344 1742.92 20335.7 1759.55 20316.3 1759.55 C 20285.8 1759.55 20174.9 1648.66 20127.8 1568.27 C 20066.8 1717.97 19958.7 1762.33 19870 1762.33 C 19542.9 1762.33 19201.9 1352.03 19201.9 950.063 C 19201.9 678.391 19365.5 506.5 19567.8 506.5 C 19687 506.5 19795.1 573.031 19894.9 672.844 C 19870 575.813 19778.5 201.563 19770.2 176.609 C 19748 98.9844 19725.8 87.9063 19570.6 85.125 C 19534.6 85.125 19506.8 85.125 19506.8 29.6875 C 19506.8 26.9063 19506.8 -.8125 19542.9 -.8125 C 19631.6 -.8125 19728.6 7.5 19820.1 7.5 C 19914.3 7.5 20014.2 -.8125 20105.6 -.8125 C 20119.5 -.8125 20155.5 -.8125 20155.5 54.6406 C 20155.5 85.125 20127.8 85.125 20083.5 85.125 C 19950.4 85.125 19950.4 104.531 19950.4 129.484 C 19950.4 148.891 19955.9 165.516 19961.5 190.469 L 20344 1731.83 Z M 19576.1 567.5 C 19409.8 567.5 19398.7 780.953 19398.7 828.078 C 19398.7 961.156 19479.1 1263.33 19526.2 1379.75 C 19612.2 1584.91 19756.3 1701.33 19870 1701.33 C 20050.2 1701.33 20089 1476.78 20089 1457.38 C 20089 1440.75 19936.5 833.625 19928.2 822.547 C 19886.6 744.922 19731.4 567.5 19576.1 567.5 "/>
<path transform="matrix(.00359712,0,0,-.00359712,0,23.74)" d="M 21305.9 473.797 L 21240 473.797 C 21234.2 431.156 21214.8 316.781 21189.6 297.391 C 21174.1 285.766 21024.8 285.766 20997.7 285.766 L 20641 285.766 C 20844.6 466.047 20912.4 520.313 21028.7 611.422 C 21172.2 725.797 21305.9 845.969 21305.9 1030.13 C 21305.9 1264.67 21100.4 1408.13 20852.3 1408.13 C 20612 1408.13 20449.1 1239.47 20449.1 1061.14 C 20449.1 962.281 20532.5 952.594 20551.9 952.594 C 20598.4 952.594 20654.6 985.547 20654.6 1055.33 C 20654.6 1090.22 20641 1158.06 20540.2 1158.06 C 20600.3 1295.69 20732.1 1338.33 20823.2 1338.33 C 21017.1 1338.33 21117.9 1187.14 21117.9 1030.13 C 21117.9 861.484 20997.7 727.734 20935.7 657.953 L 20468.5 196.594 C 20449.1 179.156 20449.1 175.281 20449.1 121 L 21247.8 121 L 21305.9 473.797 "/>
<path transform="matrix(.00359712,0,0,-.00359712,0,23.74)" d="M 22494.9 1374.22 C 22511.6 1446.3 22575.3 1701.33 22769.4 1701.33 C 22783.2 1701.33 22849.8 1701.33 22908 1665.3 C 22830.4 1651.44 22774.9 1582.13 22774.9 1515.59 C 22774.9 1471.23 22805.4 1418.56 22880.3 1418.56 C 22941.3 1418.56 23030 1468.47 23030 1579.36 C 23030 1723.52 22866.4 1762.33 22772.1 1762.33 C 22611.4 1762.33 22514.3 1615.39 22481.1 1551.64 C 22411.8 1734.59 22262.1 1762.33 22181.7 1762.33 C 21893.3 1762.33 21735.3 1404.7 21735.3 1335.41 C 21735.3 1307.67 21763.1 1307.67 21768.6 1307.67 C 21790.8 1307.67 21799.1 1313.22 21804.6 1338.17 C 21898.9 1632.03 22081.9 1701.33 22176.1 1701.33 C 22228.8 1701.33 22325.8 1676.39 22325.8 1515.59 C 22325.8 1429.66 22278.7 1243.92 22176.1 855.813 C 22131.8 683.922 22034.7 567.5 21912.8 567.5 C 21896.1 567.5 21832.4 567.5 21774.1 603.531 C 21843.5 617.391 21904.4 675.609 21904.4 753.234 C 21904.4 828.078 21843.5 850.266 21801.9 850.266 C 21718.7 850.266 21649.4 778.188 21649.4 689.469 C 21649.4 561.953 21788 506.5 21910 506.5 C 22093 506.5 22192.8 700.563 22201.1 717.188 C 22234.3 614.625 22334.1 506.5 22500.5 506.5 C 22786 506.5 22944 864.125 22944 933.422 C 22944 961.156 22919.1 961.156 22910.8 961.156 C 22885.8 961.156 22880.3 950.063 22874.7 930.656 C 22783.2 634.031 22594.7 567.5 22506 567.5 C 22397.9 567.5 22353.5 656.203 22353.5 750.469 C 22353.5 811.453 22370.2 872.438 22400.7 994.422 L 22494.9 1374.22 "/>
<path transform="matrix(.00359712,0,0,-.00359712,0,23.74)" d="M 24130.9 1689.8 L 24065 1689.8 C 24059.2 1647.16 24039.8 1532.78 24014.6 1513.39 C 23999.1 1501.77 23849.8 1501.77 23822.7 1501.77 L 23466 1501.77 C 23669.6 1682.05 23737.4 1736.31 23853.7 1827.42 C 23997.2 1941.8 24130.9 2061.97 24130.9 2246.13 C 24130.9 2480.67 23925.4 2624.13 23677.3 2624.13 C 23437 2624.13 23274.1 2455.47 23274.1 2277.14 C 23274.1 2178.28 23357.5 2168.59 23376.9 2168.59 C 23423.4 2168.59 23479.6 2201.55 23479.6 2271.33 C 23479.6 2306.22 23466 2374.06 23365.2 2374.06 C 23425.3 2511.69 23557.1 2554.33 23648.2 2554.33 C 23842.1 2554.33 23942.9 2403.14 23942.9 2246.13 C 23942.9 2077.48 23822.7 1943.73 23760.7 1873.95 L 23293.5 1412.59 C 23274.1 1395.16 23274.1 1391.28 23274.1 1337 L 24072.8 1337 L 24130.9 1689.8 "/>
<path transform="matrix(.00359712,0,0,-.00359712,0,23.74)" d="M 26143.8 1174.61 L 26917.3 1174.61 C 26956.1 1174.61 27008.8 1174.61 27008.8 1230.06 C 27008.8 1285.5 26956.1 1285.5 26917.3 1285.5 L 26143.8 1285.5 L 26143.8 2061.72 C 26143.8 2100.53 26143.8 2153.2 26088.4 2153.2 C 26033 2153.2 26033 2100.53 26033 2061.72 L 26033 1285.5 L 25256.7 1285.5 C 25217.9 1285.5 25165.3 1285.5 25165.3 1230.06 C 25165.3 1174.61 25217.9 1174.61 25256.7 1174.61 L 26033 1174.61 L 26033 398.391 C 26033 359.578 26033 306.906 26088.4 306.906 C 26143.8 306.906 26143.8 359.578 26143.8 398.391 L 26143.8 1174.61 "/>
<path transform="matrix(.00359712,0,0,-.00359712,0,23.74)" d="M 28312.3 1230.06 C 28312.3 1310.45 28245.7 1376.98 28165.3 1376.98 C 28084.9 1376.98 28018.4 1310.45 28018.4 1230.06 C 28018.4 1149.66 28084.9 1083.13 28165.3 1083.13 C 28245.7 1083.13 28312.3 1149.66 28312.3 1230.06 "/>
<path transform="matrix(.00359712,0,0,-.00359712,0,23.74)" d="M 29541.3 1230.06 C 29541.3 1310.45 29474.7 1376.98 29394.3 1376.98 C 29313.9 1376.98 29247.4 1310.45 29247.4 1230.06 C 29247.4 1149.66 29313.9 1083.13 29394.3 1083.13 C 29474.7 1083.13 29541.3 1149.66 29541.3 1230.06 "/>
<path transform="matrix(.00359712,0,0,-.00359712,0,23.74)" d="M 30773.3 1230.06 C 30773.3 1310.45 30706.7 1376.98 30626.3 1376.98 C 30545.9 1376.98 30479.4 1310.45 30479.4 1230.06 C 30479.4 1149.66 30545.9 1083.13 30626.3 1083.13 C 30706.7 1083.13 30773.3 1149.66 30773.3 1230.06 "/>
<path transform="matrix(.00359712,0,0,-.00359712,0,23.74)" d="M 32760.8 1174.61 L 33534.3 1174.61 C 33573.1 1174.61 33625.8 1174.61 33625.8 1230.06 C 33625.8 1285.5 33573.1 1285.5 33534.3 1285.5 L 32760.8 1285.5 L 32760.8 2061.72 C 32760.8 2100.53 32760.8 2153.2 32705.4 2153.2 C 32650 2153.2 32650 2100.53 32650 2061.72 L 32650 1285.5 L 31873.7 1285.5 C 31834.9 1285.5 31782.3 1285.5 31782.3 1230.06 C 31782.3 1174.61 31834.9 1174.61 31873.7 1174.61 L 32650 1174.61 L 32650 398.391 C 32650 359.578 32650 306.906 32705.4 306.906 C 32760.8 306.906 32760.8 359.578 32760.8 398.391 L 32760.8 1174.61 "/>
<path transform="matrix(.00359712,0,0,-.00359712,0,23.74)" d="M 35649 1731.83 C 35649 1742.92 35640.7 1759.55 35621.3 1759.55 C 35590.8 1759.55 35479.9 1648.66 35432.8 1568.27 C 35371.8 1717.97 35263.7 1762.33 35175 1762.33 C 34847.9 1762.33 34506.9 1352.03 34506.9 950.063 C 34506.9 678.391 34670.5 506.5 34872.8 506.5 C 34992 506.5 35100.1 573.031 35199.9 672.844 C 35175 575.813 35083.5 201.563 35075.2 176.609 C 35053 98.9844 35030.8 87.9063 34875.6 85.125 C 34839.6 85.125 34811.8 85.125 34811.8 29.6875 C 34811.8 26.9063 34811.8 -.8125 34847.9 -.8125 C 34936.6 -.8125 35033.6 7.5 35125.1 7.5 C 35219.3 7.5 35319.2 -.8125 35410.6 -.8125 C 35424.5 -.8125 35460.5 -.8125 35460.5 54.6406 C 35460.5 85.125 35432.8 85.125 35388.5 85.125 C 35255.4 85.125 35255.4 104.531 35255.4 129.484 C 35255.4 148.891 35260.9 165.516 35266.5 190.469 L 35649 1731.83 Z M 34881.1 567.5 C 34714.8 567.5 34703.7 780.953 34703.7 828.078 C 34703.7 961.156 34784.1 1263.33 34831.2 1379.75 C 34917.2 1584.91 35061.3 1701.33 35175 1701.33 C 35355.2 1701.33 35394 1476.78 35394 1457.38 C 35394 1440.75 35241.5 833.625 35233.2 822.547 C 35191.6 744.922 35036.4 567.5 34881.1 567.5 "/>
<path transform="matrix(.00359712,0,0,-.00359712,0,23.74)" d="M 35869.5 243.125 C 35861.7 217.922 35850.1 169.453 35850.1 163.641 C 35850.1 121 35885 101.609 35916 101.609 C 35950.9 101.609 35981.9 126.813 35991.6 144.266 C 36001.3 161.703 36016.8 223.734 36026.5 264.438 C 36036.2 301.281 36057.5 390.438 36069.1 438.906 C 36080.8 481.547 36092.4 524.188 36102.1 568.781 C 36123.4 648.25 36127.3 663.766 36183.5 743.234 C 36237.8 820.781 36328.9 921.578 36474.3 921.578 C 36586.7 921.578 36588.6 822.719 36588.6 785.875 C 36588.6 669.578 36505.3 454.406 36474.3 373 C 36453 318.719 36445.2 301.281 36445.2 268.328 C 36445.2 165.578 36530.5 101.609 36629.4 101.609 C 36823.2 101.609 36908.5 369.125 36908.5 398.203 C 36908.5 423.391 36883.3 423.391 36877.5 423.391 C 36850.3 423.391 36848.4 411.766 36840.6 390.438 C 36796.1 235.375 36712.7 155.891 36635.2 155.891 C 36594.5 155.891 36586.7 183.031 36586.7 223.734 C 36586.7 268.328 36596.4 293.516 36631.3 380.75 C 36654.5 440.844 36734 646.313 36734 754.875 C 36734 942.891 36584.8 975.844 36482 975.844 C 36321.1 975.844 36212.6 876.984 36154.4 799.453 C 36140.9 933.203 36026.5 975.844 35947 975.844 C 35863.7 975.844 35819.1 915.75 35793.9 871.172 C 35751.3 799.453 35724.1 688.953 35724.1 679.266 C 35724.1 654.063 35751.3 654.063 35757.1 654.063 C 35784.2 654.063 35786.1 659.891 35799.7 712.219 C 35828.8 826.594 35865.6 921.578 35941.2 921.578 C 35991.6 921.578 36005.2 878.922 36005.2 826.594 C 36005.2 789.766 35987.7 718.031 35974.2 665.703 C 35960.6 613.359 35941.2 533.891 35931.5 491.234 L 35869.5 243.125 "/>
<path transform="matrix(.00359712,0,0,-.00359712,0,23.74)" d="M 38065.9 1374.22 C 38082.6 1446.3 38146.3 1701.33 38340.4 1701.33 C 38354.2 1701.33 38420.8 1701.33 38479 1665.3 C 38401.4 1651.44 38345.9 1582.13 38345.9 1515.59 C 38345.9 1471.23 38376.4 1418.56 38451.3 1418.56 C 38512.3 1418.56 38601 1468.47 38601 1579.36 C 38601 1723.52 38437.4 1762.33 38343.1 1762.33 C 38182.4 1762.33 38085.3 1615.39 38052.1 1551.64 C 37982.8 1734.59 37833.1 1762.33 37752.7 1762.33 C 37464.3 1762.33 37306.3 1404.7 37306.3 1335.41 C 37306.3 1307.67 37334.1 1307.67 37339.6 1307.67 C 37361.8 1307.67 37370.1 1313.22 37375.6 1338.17 C 37469.9 1632.03 37652.9 1701.33 37747.1 1701.33 C 37799.8 1701.33 37896.8 1676.39 37896.8 1515.59 C 37896.8 1429.66 37849.7 1243.92 37747.1 855.813 C 37702.8 683.922 37605.7 567.5 37483.8 567.5 C 37467.1 567.5 37403.4 567.5 37345.1 603.531 C 37414.5 617.391 37475.4 675.609 37475.4 753.234 C 37475.4 828.078 37414.5 850.266 37372.9 850.266 C 37289.7 850.266 37220.4 778.188 37220.4 689.469 C 37220.4 561.953 37359 506.5 37481 506.5 C 37664 506.5 37763.8 700.563 37772.1 717.188 C 37805.3 614.625 37905.1 506.5 38071.5 506.5 C 38357 506.5 38515 864.125 38515 933.422 C 38515 961.156 38490.1 961.156 38481.8 961.156 C 38456.8 961.156 38451.3 950.063 38445.7 930.656 C 38354.2 634.031 38165.7 567.5 38077 567.5 C 37968.9 567.5 37924.5 656.203 37924.5 750.469 C 37924.5 811.453 37941.2 872.438 37971.7 994.422 L 38065.9 1374.22 "/>
<path transform="matrix(.00359712,0,0,-.00359712,0,23.74)" d="M 38959.5 1459.13 C 38951.7 1433.92 38940.1 1385.45 38940.1 1379.64 C 38940.1 1337 38975 1317.61 39006 1317.61 C 39040.9 1317.61 39071.9 1342.81 39081.6 1360.27 C 39091.3 1377.7 39106.8 1439.73 39116.5 1480.44 C 39126.2 1517.28 39147.5 1606.44 39159.1 1654.91 C 39170.8 1697.55 39182.4 1740.19 39192.1 1784.78 C 39213.4 1864.25 39217.3 1879.77 39273.5 1959.23 C 39327.8 2036.78 39418.9 2137.58 39564.3 2137.58 C 39676.7 2137.58 39678.6 2038.72 39678.6 2001.88 C 39678.6 1885.58 39595.3 1670.41 39564.3 1589 C 39543 1534.72 39535.2 1517.28 39535.2 1484.33 C 39535.2 1381.58 39620.5 1317.61 39719.4 1317.61 C 39913.2 1317.61 39998.5 1585.13 39998.5 1614.2 C 39998.5 1639.39 39973.3 1639.39 39967.5 1639.39 C 39940.3 1639.39 39938.4 1627.77 39930.6 1606.44 C 39886.1 1451.38 39802.7 1371.89 39725.2 1371.89 C 39684.5 1371.89 39676.7 1399.03 39676.7 1439.73 C 39676.7 1484.33 39686.4 1509.52 39721.3 1596.75 C 39744.5 1656.84 39824 1862.31 39824 1970.88 C 39824 2158.89 39674.8 2191.84 39572 2191.84 C 39411.1 2191.84 39302.6 2092.98 39244.4 2015.45 C 39230.9 2149.2 39116.5 2191.84 39037 2191.84 C 38953.7 2191.84 38909.1 2131.75 38883.9 2087.17 C 38841.3 2015.45 38814.1 1904.95 38814.1 1895.27 C 38814.1 1870.06 38841.3 1870.06 38847.1 1870.06 C 38874.2 1870.06 38876.1 1875.89 38889.7 1928.22 C 38918.8 2042.59 38955.6 2137.58 39031.2 2137.58 C 39081.6 2137.58 39095.2 2094.92 39095.2 2042.59 C 39095.2 2005.77 39077.7 1934.03 39064.2 1881.7 C 39050.6 1829.36 39031.2 1749.89 39021.5 1707.23 L 38959.5 1459.13 "/>
</g>
</svg>
